<svg id="svg" version="1.1" xmlns="http://www.w3.org/2000/svg" xmlns:xlink="http://www.w3.org/1999/xlink" width="400" height="400" viewBox="0, 0, 400,400"><g id="svgg"><path id="path0" d="M387.291 130.100 C 386.698 131.302,386.418 132.817,385.729 138.561 C 384.938 145.167,384.892 145.756,384.373 156.000 C 384.122 160.950,383.776 165.090,383.605 165.200 C 383.246 165.430,382.400 174.875,382.400 178.657 C 382.400 180.056,382.242 181.200,382.049 181.200 C 381.856 181.200,381.472 182.651,381.196 184.424 C 380.920 186.197,380.448 187.894,380.147 188.196 C 379.846 188.497,379.600 188.896,379.600 189.082 C 379.600 189.269,379.060 190.013,378.400 190.736 C 377.740 191.458,377.200 192.308,377.200 192.625 C 377.200 192.941,377.040 193.200,376.845 193.200 C 376.649 193.200,376.364 193.875,376.212 194.700 C 375.927 196.243,373.590 198.935,371.618 199.990 C 370.118 200.793,369.113 201.696,365.741 205.267 C 363.692 207.438,363.002 207.885,360.643 208.570 C 359.409 208.929,358.400 209.397,358.400 209.611 C 358.400 209.825,358.168 210.000,357.884 210.000 C 357.599 210.000,356.729 210.694,355.950 211.542 C 355.138 212.425,353.692 213.399,352.566 213.821 C 351.485 214.227,350.505 214.695,350.388 214.861 C 350.271 215.027,348.966 215.392,347.488 215.673 C 346.010 215.953,344.800 216.321,344.800 216.491 C 344.800 216.661,344.326 216.800,343.746 216.800 C 342.155 216.800,337.600 217.700,337.600 218.014 C 337.600 218.166,336.205 218.413,334.500 218.564 C 330.451 218.922,328.344 219.502,327.687 220.440 C 327.394 220.858,326.895 221.200,326.577 221.200 C 326.260 221.200,326.000 221.373,326.000 221.584 C 326.000 221.795,325.235 222.191,324.300 222.464 C 323.365 222.738,322.492 223.117,322.359 223.308 C 321.412 224.674,284.954 224.670,284.047 223.303 C 283.911 223.099,282.405 222.697,280.700 222.409 C 278.995 222.122,277.600 221.772,277.600 221.631 C 277.600 221.490,276.745 221.126,275.700 220.822 C 274.655 220.518,273.704 220.126,273.586 219.950 C 273.339 219.582,266.429 218.404,264.500 218.402 C 263.785 218.401,263.200 218.220,263.200 218.000 C 263.200 217.170,262.574 217.648,262.022 218.900 C 261.707 219.615,261.238 220.413,260.980 220.674 C 260.721 220.934,260.391 222.045,260.245 223.143 C 260.100 224.241,259.808 225.198,259.596 225.270 C 258.499 225.641,258.285 230.069,258.117 255.900 C 258.013 271.854,257.796 282.400,257.572 282.400 C 257.367 282.400,257.200 283.783,257.200 285.473 C 257.200 289.661,256.389 295.668,255.736 296.321 C 255.441 296.616,255.200 297.080,255.200 297.351 C 255.200 297.793,254.403 298.884,252.325 301.285 C 251.953 301.715,251.532 302.600,251.388 303.254 C 251.143 304.369,246.685 309.200,245.900 309.200 C 245.307 309.200,242.000 312.185,242.000 312.720 C 242.000 313.208,239.772 315.139,238.587 315.679 C 238.044 315.926,237.600 316.246,237.600 316.390 C 237.600 316.533,236.986 316.892,236.235 317.186 C 235.484 317.481,234.644 318.144,234.367 318.661 C 234.091 319.177,233.737 319.600,233.581 319.600 C 233.425 319.600,233.073 320.140,232.800 320.800 C 232.527 321.460,232.145 322.000,231.951 322.000 C 231.758 322.000,231.242 322.358,230.805 322.795 C 230.288 323.312,228.989 323.756,227.105 324.062 C 225.507 324.322,224.108 324.670,223.995 324.836 C 223.883 325.003,221.453 325.440,218.595 325.808 C 215.738 326.176,213.310 326.608,213.200 326.767 C 213.090 326.926,211.695 327.284,210.100 327.564 C 208.505 327.844,207.200 328.229,207.200 328.421 C 207.200 328.612,206.453 328.970,205.540 329.216 C 204.627 329.462,203.657 329.886,203.385 330.158 C 203.113 330.430,201.835 330.887,200.545 331.174 C 199.255 331.461,198.098 331.856,197.974 332.052 C 197.850 332.247,195.690 332.614,193.174 332.866 C 190.658 333.119,188.510 333.451,188.400 333.605 C 188.290 333.758,186.768 334.095,185.018 334.352 C 183.267 334.609,181.699 335.040,181.532 335.310 C 181.122 335.972,152.117 336.024,151.685 335.363 C 151.528 335.123,149.690 334.697,147.600 334.417 C 145.510 334.136,143.710 333.766,143.600 333.593 C 143.369 333.229,135.672 332.400,132.531 332.400 C 131.359 332.400,130.400 332.220,130.400 332.000 C 130.400 331.780,129.905 331.598,129.300 331.595 C 127.875 331.589,123.940 330.542,123.635 330.087 C 123.506 329.894,122.815 329.481,122.100 329.170 C 121.385 328.859,120.800 328.497,120.800 328.366 C 120.800 328.235,120.035 327.882,119.100 327.581 C 118.165 327.280,117.310 326.917,117.200 326.775 C 116.971 326.478,109.644 325.200,108.174 325.200 C 107.638 325.200,107.200 325.020,107.200 324.800 C 107.200 324.286,99.096 324.266,97.428 324.776 C 96.753 324.982,94.909 325.323,93.332 325.533 C 88.586 326.165,87.600 327.370,87.600 332.542 C 87.600 337.151,87.804 337.364,92.368 337.540 L 96.000 337.680 96.000 340.414 C 96.000 346.019,95.954 346.000,110.012 346.000 L 120.705 346.000 120.982 349.324 C 121.135 351.153,121.419 352.908,121.615 353.224 C 122.183 354.144,227.649 354.294,228.567 353.376 C 229.044 352.899,229.200 351.913,229.200 349.371 L 229.200 346.000 239.223 346.000 C 253.340 346.000,253.622 345.900,253.919 340.778 L 254.103 337.600 257.033 337.600 C 261.926 337.600,262.385 337.129,262.395 332.100 L 262.400 329.200 265.971 329.200 C 271.024 329.200,270.800 329.616,270.800 320.231 L 270.800 312.519 274.079 312.266 C 279.541 311.845,279.179 314.349,279.190 276.900 L 279.200 246.000 311.181 246.000 C 348.902 246.000,346.000 246.468,346.000 240.381 L 346.000 237.600 357.738 237.600 C 371.730 237.600,370.800 237.950,370.800 232.682 L 370.800 229.228 374.900 229.114 L 379.000 229.000 379.113 224.962 L 379.227 220.924 385.313 220.665 C 392.616 220.355,394.151 220.001,394.723 218.494 C 395.546 216.327,396.000 211.029,396.000 203.584 L 396.000 196.000 398.000 196.000 L 400.000 196.000 400.000 175.200 L 400.000 154.400 398.000 154.400 L 396.000 154.400 396.000 142.689 C 396.000 128.382,396.288 129.200,391.245 129.200 C 388.004 129.200,387.701 129.269,387.291 130.100 M202.099 150.302 C 200.033 154.512,200.020 154.560,200.802 155.287 C 201.235 155.691,201.702 156.467,201.839 157.011 C 201.975 157.555,202.213 158.000,202.366 158.000 C 202.688 158.000,204.000 160.838,204.000 161.534 C 204.000 162.614,204.710 161.873,205.182 160.300 C 205.463 159.365,205.870 158.114,206.086 157.521 C 206.661 155.944,205.310 147.177,204.344 146.211 C 204.257 146.123,203.246 147.964,202.099 150.302 M4.109 150.400 C 4.109 151.390,4.187 151.795,4.282 151.300 C 4.378 150.805,4.378 149.995,4.282 149.500 C 4.187 149.005,4.109 149.410,4.109 150.400 M4.164 180.600 C 4.163 184.340,4.223 185.924,4.297 184.120 C 4.371 182.315,4.372 179.255,4.298 177.320 C 4.225 175.384,4.164 176.860,4.164 180.600 M4.649 203.815 C 4.512 204.173,4.424 205.126,4.453 205.933 C 4.501 207.244,4.538 207.187,4.795 205.400 C 5.103 203.271,5.055 202.758,4.649 203.815 M5.072 207.218 C 4.757 209.882,5.234 211.024,6.875 211.530 C 8.453 212.015,13.036 212.393,12.372 211.983 C 12.038 211.776,12.061 211.645,12.455 211.510 C 12.755 211.408,11.997 211.030,10.770 210.671 C 9.544 210.312,8.215 209.659,7.817 209.219 C 7.419 208.779,6.939 208.514,6.751 208.630 C 6.563 208.746,6.517 208.560,6.649 208.216 C 6.826 207.754,6.713 207.658,6.216 207.849 C 5.635 208.072,5.581 207.910,5.816 206.654 C 5.978 205.792,5.931 205.200,5.700 205.200 C 5.486 205.200,5.204 206.108,5.072 207.218 M26.600 210.689 C 26.160 210.798,25.620 211.023,25.400 211.191 C 25.180 211.359,24.341 211.708,23.535 211.967 C 21.547 212.607,21.049 214.696,21.021 222.513 C 20.996 229.502,20.774 229.185,25.700 229.194 L 29.200 229.200 29.247 231.700 C 29.356 237.432,29.549 237.545,39.300 237.577 L 46.000 237.600 46.006 240.900 C 46.016 246.154,45.594 246.000,59.999 246.000 L 71.146 246.000 72.505 244.300 C 75.162 240.976,76.465 235.221,74.837 234.000 C 74.690 233.890,74.363 232.553,74.109 231.029 C 73.824 229.317,73.409 228.125,73.024 227.909 C 72.681 227.717,72.400 227.306,72.400 226.994 C 72.400 225.920,70.968 225.709,62.002 225.460 C 56.509 225.307,52.951 225.052,52.868 224.805 C 52.794 224.582,52.312 224.400,51.797 224.400 C 49.666 224.400,46.574 223.391,45.700 222.410 C 42.550 218.874,40.889 217.278,40.100 217.029 C 39.605 216.874,39.200 216.596,39.200 216.413 C 39.200 216.230,38.264 215.855,37.120 215.581 C 34.774 215.018,34.631 214.927,31.958 212.300 C 29.999 210.375,29.046 210.088,26.600 210.689 M10.400 211.200 C 10.400 211.420,10.130 211.600,9.800 211.600 C 9.470 211.600,9.200 211.420,9.200 211.200 C 9.200 210.980,9.470 210.800,9.800 210.800 C 10.130 210.800,10.400 210.980,10.400 211.200 M12.909 214.400 C 12.909 215.390,12.987 215.795,13.082 215.300 C 13.178 214.805,13.178 213.995,13.082 213.500 C 12.987 213.005,12.909 213.410,12.909 214.400 M13.596 214.476 C 13.593 214.984,13.483 216.055,13.351 216.855 C 13.021 218.849,14.263 220.168,16.126 219.802 C 17.077 219.615,17.248 219.657,16.800 219.970 C 16.349 220.284,16.722 220.389,18.300 220.394 C 20.795 220.401,21.274 219.453,18.991 219.025 C 17.195 218.688,14.932 216.712,14.597 215.188 C 14.274 213.715,13.602 213.238,13.596 214.476 M71.012 307.600 C 71.154 309.568,71.481 311.229,71.788 311.544 C 72.531 312.309,76.000 312.672,76.000 311.985 C 76.000 311.700,75.888 311.579,75.750 311.716 C 75.613 311.853,74.779 311.597,73.896 311.147 C 72.594 310.483,72.227 310.429,71.952 310.864 C 71.672 311.306,71.611 311.303,71.606 310.844 C 71.603 310.538,71.915 310.030,72.300 309.714 C 72.685 309.399,72.747 309.272,72.437 309.433 C 72.011 309.654,71.929 309.515,72.100 308.863 C 72.252 308.281,72.142 308.000,71.763 308.000 C 71.109 308.000,71.000 307.333,71.620 307.127 C 71.889 307.037,71.811 306.487,71.403 305.593 C 70.778 304.224,70.771 304.259,71.012 307.600 M79.387 323.711 C 79.065 324.993,79.262 326.088,79.849 326.283 C 80.558 326.519,80.839 324.790,80.135 324.520 C 79.649 324.333,79.635 324.226,80.063 323.961 C 80.472 323.708,80.485 323.525,80.119 323.159 C 79.753 322.793,79.585 322.919,79.387 323.711 M79.678 327.571 C 79.972 328.561,81.169 329.086,81.590 328.411 C 81.830 328.026,81.792 327.716,81.479 327.517 C 80.677 327.007,80.301 327.163,80.558 327.900 C 80.756 328.469,80.681 328.450,80.155 327.800 C 79.799 327.360,79.585 327.257,79.678 327.571 M83.200 328.800 L 82.200 329.120 83.300 329.160 C 83.905 329.182,84.400 329.020,84.400 328.800 C 84.400 328.580,84.355 328.418,84.300 328.440 C 84.245 328.462,83.750 328.624,83.200 328.800 " stroke="none" fill="#1c1204" fill-rule="evenodd"></path><path id="path1" d="M385.922 131.141 C 385.223 132.131,384.682 133.636,384.380 135.433 C 384.125 136.955,383.754 138.560,383.557 139.000 C 383.100 140.021,382.408 148.002,382.403 152.300 C 382.401 154.231,382.234 155.600,382.000 155.600 C 381.780 155.600,381.600 156.062,381.600 156.627 C 381.600 158.620,380.298 166.602,379.951 166.733 C 379.758 166.807,379.600 167.214,379.600 167.639 C 379.600 168.469,378.882 169.930,378.148 170.592 C 377.899 170.816,377.577 171.510,377.432 172.134 C 377.156 173.318,376.775 173.901,375.338 175.338 C 373.905 176.772,373.320 177.155,372.134 177.440 C 371.510 177.590,370.678 178.047,370.284 178.456 C 369.891 178.865,369.416 179.200,369.229 179.200 C 369.042 179.200,368.769 179.840,368.622 180.622 C 368.326 182.203,365.898 184.800,364.717 184.800 C 364.322 184.800,364.000 184.960,364.000 185.155 C 364.000 185.625,362.357 185.906,356.802 186.387 C 354.274 186.606,352.144 186.969,352.069 187.193 C 351.994 187.417,351.498 187.600,350.967 187.600 C 350.435 187.600,350.000 187.766,350.000 187.969 C 350.000 188.391,346.816 191.600,346.398 191.600 C 346.246 191.600,345.723 191.946,345.236 192.369 C 344.748 192.792,343.640 193.258,342.774 193.404 C 341.908 193.551,341.200 193.834,341.200 194.035 C 341.200 194.236,339.760 194.400,338.000 194.400 C 336.133 194.400,334.800 194.233,334.800 194.000 C 334.800 193.765,333.400 193.600,331.400 193.600 C 329.530 193.600,328.000 193.746,328.000 193.924 C 328.000 194.103,327.100 194.479,326.000 194.761 C 324.900 195.043,324.000 195.437,324.000 195.637 C 324.000 195.837,323.753 196.000,323.452 196.000 C 323.144 196.000,322.683 196.789,322.398 197.806 C 322.038 199.093,321.643 199.674,321.023 199.830 C 319.065 200.321,274.271 199.815,274.100 199.300 C 274.008 199.025,273.654 198.800,273.313 198.800 C 271.763 198.800,269.655 197.840,269.250 196.949 C 268.917 196.218,268.501 196.000,267.442 196.000 C 266.686 196.000,266.007 195.847,265.933 195.660 C 265.679 195.012,262.422 194.836,261.820 195.437 C 261.511 195.747,261.109 196.000,260.929 195.999 C 260.748 195.999,260.659 197.349,260.732 198.999 C 260.804 200.650,261.029 202.000,261.232 202.000 C 262.077 202.000,261.666 212.967,260.800 213.507 C 260.360 213.782,260.000 214.256,260.000 214.561 C 260.000 214.865,259.765 215.205,259.478 215.315 C 259.191 215.425,258.704 216.299,258.395 217.257 C 258.086 218.216,257.727 219.090,257.596 219.200 C 257.277 219.469,256.400 223.427,256.400 224.597 C 256.400 225.112,256.232 225.593,256.026 225.667 C 255.821 225.740,255.431 227.420,255.160 229.400 C 254.889 231.380,254.553 233.090,254.413 233.200 C 254.273 233.310,253.825 234.300,253.417 235.400 C 253.010 236.500,252.454 237.532,252.183 237.694 C 251.913 237.856,251.572 238.621,251.427 239.394 C 251.282 240.167,251.037 240.803,250.882 240.806 C 250.727 240.810,249.991 241.350,249.246 242.006 C 248.501 242.663,247.565 243.200,247.166 243.200 C 246.766 243.200,246.296 243.445,246.120 243.743 C 245.944 244.042,245.125 244.506,244.300 244.774 C 243.475 245.043,242.800 245.428,242.800 245.631 C 242.800 245.834,242.530 246.000,242.200 246.000 C 241.870 246.000,241.600 246.151,241.600 246.336 C 241.600 246.890,238.449 249.931,237.594 250.202 C 237.157 250.341,236.800 250.615,236.800 250.811 C 236.800 251.007,236.035 251.391,235.100 251.664 C 234.165 251.938,233.300 252.304,233.178 252.479 C 233.055 252.653,230.535 252.986,227.578 253.218 C 219.385 253.860,219.692 253.772,219.196 255.614 C 218.769 257.201,217.046 259.200,216.104 259.200 C 215.827 259.200,215.600 259.365,215.600 259.567 C 215.600 259.985,212.151 260.800,210.380 260.800 C 209.731 260.800,209.200 260.980,209.200 261.200 C 209.200 261.420,208.435 261.599,207.500 261.598 C 202.676 261.592,195.394 262.560,194.877 263.276 C 194.590 263.674,194.089 264.000,193.765 264.000 C 193.440 264.000,193.077 264.254,192.958 264.564 C 192.839 264.875,191.945 265.364,190.971 265.652 C 189.997 265.939,189.200 266.315,189.200 266.487 C 189.200 266.659,179.210 266.800,167.000 266.800 C 154.320 266.800,144.800 266.648,144.800 266.445 C 144.800 266.249,144.160 265.969,143.377 265.822 C 142.594 265.675,141.654 265.205,141.288 264.778 C 140.922 264.350,140.426 264.000,140.187 264.000 C 139.947 264.000,139.401 263.674,138.973 263.275 C 138.122 262.483,130.830 261.587,125.300 261.595 C 123.630 261.598,122.400 261.430,122.400 261.200 C 122.400 260.980,121.814 260.800,121.097 260.800 C 119.627 260.800,117.173 260.172,116.828 259.707 C 116.703 259.538,116.060 259.097,115.400 258.726 C 114.528 258.237,114.042 257.525,113.623 256.126 C 113.305 255.067,113.035 254.174,113.023 254.142 C 113.010 254.109,109.763 253.782,105.806 253.413 C 101.850 253.045,98.519 252.593,98.405 252.408 C 98.291 252.224,97.529 251.948,96.712 251.795 C 95.894 251.641,94.838 251.180,94.365 250.770 C 93.892 250.359,93.203 249.928,92.834 249.811 C 92.465 249.694,91.829 248.788,91.421 247.799 C 91.013 246.810,90.437 246.000,90.140 246.000 C 89.843 246.000,89.600 245.856,89.600 245.680 C 89.600 245.306,87.246 244.400,86.272 244.400 C 85.902 244.400,85.600 244.234,85.600 244.032 C 85.600 243.829,85.048 243.542,84.374 243.394 C 83.632 243.231,82.976 242.746,82.710 242.163 C 82.469 241.633,82.133 241.200,81.964 241.200 C 81.795 241.200,81.449 240.199,81.195 238.975 C 80.941 237.751,80.487 236.655,80.186 236.539 C 79.885 236.424,79.427 235.670,79.167 234.865 C 78.908 234.059,78.559 233.220,78.391 233.000 C 78.224 232.780,77.874 231.565,77.615 230.300 C 77.356 229.035,76.976 228.000,76.772 228.000 C 76.567 228.000,76.400 227.745,76.400 227.432 C 76.400 226.767,75.260 224.573,74.400 223.585 C 72.455 221.348,72.400 221.161,72.400 216.747 C 72.400 213.467,72.259 212.316,71.800 211.857 C 71.470 211.527,71.200 211.084,71.200 210.871 C 71.200 210.413,70.237 210.000,69.167 210.000 C 68.745 210.000,68.400 209.820,68.400 209.600 C 68.400 209.380,68.175 209.199,67.900 209.198 C 66.646 209.192,64.406 208.303,63.354 207.394 C 61.051 205.403,60.483 204.849,60.343 204.457 C 60.264 204.238,57.950 203.738,55.200 203.345 C 52.450 202.952,50.110 202.523,50.000 202.392 C 49.890 202.261,48.765 201.910,47.500 201.613 C 46.235 201.315,45.200 200.933,45.200 200.763 C 45.200 200.593,44.795 200.331,44.300 200.181 C 43.511 199.941,42.197 198.718,40.484 196.629 C 40.201 196.283,39.616 196.000,39.184 196.000 C 38.753 196.000,38.400 195.853,38.400 195.673 C 38.400 195.493,36.838 195.137,34.929 194.881 C 33.020 194.626,31.355 194.270,31.229 194.092 C 31.103 193.913,30.235 193.520,29.300 193.219 C 28.365 192.918,27.600 192.516,27.600 192.326 C 27.600 192.136,27.150 191.809,26.600 191.600 C 26.050 191.391,25.600 190.954,25.600 190.630 C 25.600 190.305,25.364 189.896,25.077 189.720 C 24.789 189.544,24.317 188.815,24.028 188.100 C 23.739 187.385,23.390 186.797,23.251 186.794 C 23.113 186.790,22.413 186.270,21.696 185.637 C 20.979 185.005,19.781 184.373,19.035 184.233 C 18.288 184.093,17.576 183.713,17.451 183.389 C 17.327 183.065,16.986 182.800,16.693 182.800 C 16.187 182.800,15.200 180.712,15.200 179.643 C 15.200 179.368,14.945 178.887,14.632 178.575 C 14.320 178.263,13.951 176.791,13.812 175.304 C 13.257 169.342,13.373 169.604,11.265 169.568 C 7.330 169.499,5.486 169.262,5.192 168.787 C 4.974 168.435,4.821 168.508,4.655 169.047 C 4.252 170.350,4.469 202.562,4.884 203.082 C 5.096 203.348,5.162 203.738,5.031 203.950 C 4.900 204.162,5.078 204.621,5.428 204.970 C 5.883 205.425,5.984 205.961,5.786 206.863 C 5.548 207.945,5.606 208.083,6.200 207.856 C 6.734 207.650,6.829 207.746,6.623 208.283 C 6.477 208.664,6.482 208.851,6.634 208.699 C 6.787 208.547,7.440 208.867,8.086 209.411 C 8.733 209.955,9.563 210.413,9.931 210.428 C 10.474 210.451,10.449 210.526,9.800 210.827 C 9.188 211.111,9.302 211.144,10.285 210.971 C 10.991 210.845,11.891 210.930,12.285 211.159 C 12.678 211.388,12.844 211.581,12.653 211.588 C 12.461 211.595,12.788 212.233,13.378 213.006 C 14.127 213.989,14.374 214.681,14.199 215.306 C 14.027 215.918,14.064 216.032,14.318 215.666 C 14.607 215.250,14.736 215.313,14.902 215.947 C 15.019 216.395,14.950 216.847,14.748 216.951 C 14.545 217.055,14.609 217.090,14.890 217.030 C 15.170 216.969,15.909 217.342,16.531 217.860 C 17.153 218.377,17.963 218.813,18.331 218.828 C 18.872 218.851,18.847 218.925,18.200 219.219 C 17.630 219.477,17.831 219.514,18.900 219.346 C 20.007 219.173,20.407 219.254,20.428 219.655 C 20.482 220.704,21.144 218.587,21.172 217.277 C 21.238 214.148,21.990 212.465,23.543 211.965 C 24.344 211.707,25.206 211.333,25.458 211.134 C 27.162 209.787,29.885 210.258,31.908 212.249 C 34.635 214.932,34.767 215.016,37.120 215.581 C 38.264 215.855,39.200 216.230,39.200 216.413 C 39.200 216.596,39.605 216.874,40.100 217.029 C 40.889 217.278,42.550 218.874,45.700 222.410 C 46.574 223.391,49.666 224.400,51.797 224.400 C 52.312 224.400,52.794 224.582,52.868 224.805 C 52.951 225.052,56.509 225.307,62.002 225.460 C 70.968 225.709,72.400 225.920,72.400 226.994 C 72.400 227.306,72.681 227.717,73.024 227.909 C 73.409 228.125,73.824 229.317,74.109 231.029 C 74.363 232.553,74.690 233.890,74.837 234.000 C 76.532 235.272,75.136 241.063,72.303 244.511 L 70.733 246.422 70.886 275.711 C 71.009 299.268,71.144 305.192,71.577 305.981 C 71.966 306.690,71.988 307.004,71.657 307.114 C 71.009 307.330,71.089 308.000,71.763 308.000 C 72.142 308.000,72.252 308.281,72.100 308.863 C 71.929 309.515,72.011 309.654,72.437 309.433 C 72.747 309.272,72.704 309.385,72.343 309.683 C 71.750 310.173,74.228 311.744,75.667 311.791 C 75.813 311.796,76.068 311.935,76.233 312.100 C 76.687 312.553,78.485 312.462,78.200 312.000 C 78.064 311.780,78.133 311.600,78.353 311.600 C 79.051 311.600,79.141 312.124,79.345 317.343 C 79.471 320.580,79.728 322.672,80.046 323.056 C 80.450 323.542,80.449 323.723,80.041 323.975 C 79.650 324.216,79.678 324.344,80.162 324.530 C 80.662 324.722,80.710 324.985,80.396 325.812 C 79.881 327.164,79.846 327.075,81.016 327.368 C 81.575 327.509,81.928 327.793,81.800 328.000 C 81.526 328.444,83.374 328.987,83.950 328.631 C 84.167 328.497,84.458 328.570,84.596 328.793 C 85.105 329.617,87.589 329.260,88.036 328.300 C 88.754 326.756,90.330 325.933,93.332 325.533 C 94.909 325.323,96.753 324.982,97.428 324.776 C 99.096 324.266,107.200 324.286,107.200 324.800 C 107.200 325.020,107.638 325.200,108.174 325.200 C 109.644 325.200,116.971 326.478,117.200 326.775 C 117.310 326.917,118.165 327.280,119.100 327.581 C 120.035 327.882,120.800 328.235,120.800 328.366 C 120.800 328.497,121.385 328.859,122.100 329.170 C 122.815 329.481,123.506 329.894,123.635 330.087 C 123.940 330.542,127.875 331.589,129.300 331.595 C 129.905 331.598,130.400 331.780,130.400 332.000 C 130.400 332.220,131.359 332.400,132.531 332.400 C 135.672 332.400,143.369 333.229,143.600 333.593 C 143.710 333.766,145.510 334.136,147.600 334.417 C 149.690 334.697,151.528 335.123,151.685 335.363 C 152.117 336.024,181.122 335.972,181.532 335.310 C 181.699 335.040,183.267 334.609,185.018 334.352 C 186.768 334.095,188.290 333.758,188.400 333.605 C 188.510 333.451,190.658 333.119,193.174 332.866 C 195.690 332.614,197.850 332.247,197.974 332.052 C 198.098 331.856,199.255 331.461,200.545 331.174 C 201.835 330.887,203.113 330.430,203.385 330.158 C 203.657 329.886,204.627 329.462,205.540 329.216 C 206.453 328.970,207.200 328.612,207.200 328.421 C 207.200 328.229,208.505 327.844,210.100 327.564 C 211.695 327.284,213.090 326.926,213.200 326.767 C 213.310 326.608,215.738 326.176,218.595 325.808 C 221.453 325.440,223.883 325.003,223.995 324.836 C 224.108 324.670,225.507 324.322,227.105 324.062 C 228.989 323.756,230.288 323.312,230.805 322.795 C 231.242 322.358,231.758 322.000,231.951 322.000 C 232.145 322.000,232.527 321.460,232.800 320.800 C 233.073 320.140,233.425 319.600,233.581 319.600 C 233.737 319.600,234.091 319.177,234.367 318.661 C 234.644 318.144,235.484 317.481,236.235 317.186 C 236.986 316.892,237.600 316.533,237.600 316.390 C 237.600 316.246,238.044 315.926,238.587 315.679 C 239.772 315.139,242.000 313.208,242.000 312.720 C 242.000 312.185,245.307 309.200,245.900 309.200 C 246.674 309.200,251.143 304.370,251.384 303.274 C 251.614 302.225,252.259 301.275,254.500 298.686 C 254.885 298.242,255.200 297.648,255.200 297.367 C 255.200 297.087,255.441 296.616,255.736 296.321 C 256.389 295.668,257.200 289.661,257.200 285.473 C 257.200 283.783,257.367 282.400,257.572 282.400 C 257.796 282.400,258.013 271.854,258.117 255.900 C 258.285 230.069,258.499 225.641,259.596 225.270 C 259.808 225.198,260.100 224.241,260.245 223.143 C 260.391 222.045,260.721 220.934,260.980 220.674 C 261.238 220.413,261.707 219.615,262.022 218.900 C 262.574 217.648,263.200 217.170,263.200 218.000 C 263.200 218.220,263.785 218.401,264.500 218.402 C 266.429 218.404,273.339 219.582,273.586 219.950 C 273.704 220.126,274.655 220.518,275.700 220.822 C 276.745 221.126,277.600 221.490,277.600 221.631 C 277.600 221.772,278.995 222.122,280.700 222.409 C 282.405 222.697,283.911 223.099,284.047 223.303 C 284.954 224.670,321.412 224.674,322.359 223.308 C 322.492 223.117,323.365 222.738,324.300 222.464 C 325.235 222.191,326.000 221.795,326.000 221.584 C 326.000 221.373,326.260 221.200,326.577 221.200 C 326.895 221.200,327.394 220.858,327.687 220.440 C 328.344 219.502,330.451 218.922,334.500 218.564 C 336.205 218.413,337.600 218.166,337.600 218.014 C 337.600 217.700,342.155 216.800,343.746 216.800 C 344.326 216.800,344.800 216.661,344.800 216.491 C 344.800 216.321,346.010 215.953,347.488 215.673 C 348.966 215.392,350.271 215.027,350.388 214.861 C 350.505 214.695,351.485 214.227,352.566 213.821 C 353.692 213.399,355.138 212.425,355.950 211.542 C 356.729 210.694,357.599 210.000,357.884 210.000 C 358.168 210.000,358.400 209.825,358.400 209.611 C 358.400 209.397,359.409 208.929,360.643 208.570 C 363.002 207.885,363.692 207.438,365.741 205.267 C 369.113 201.696,370.118 200.793,371.618 199.990 C 373.590 198.935,375.927 196.243,376.212 194.700 C 376.364 193.875,376.649 193.200,376.845 193.200 C 377.040 193.200,377.200 192.941,377.200 192.625 C 377.200 192.308,377.740 191.458,378.400 190.736 C 379.060 190.013,379.600 189.269,379.600 189.082 C 379.600 188.896,379.846 188.497,380.147 188.196 C 380.448 187.894,380.920 186.197,381.196 184.424 C 381.472 182.651,381.856 181.200,382.049 181.200 C 382.242 181.200,382.400 180.056,382.400 178.657 C 382.400 174.875,383.246 165.430,383.605 165.200 C 383.776 165.090,384.122 160.950,384.373 156.000 C 384.893 145.725,384.940 145.125,385.732 138.600 C 386.465 132.554,386.802 130.729,387.301 130.100 C 387.519 129.825,387.541 129.604,387.349 129.609 C 387.157 129.613,386.515 130.303,385.922 131.141 M201.600 146.679 C 200.390 146.985,198.833 147.498,198.140 147.818 C 197.446 148.138,196.681 148.400,196.440 148.400 C 196.198 148.400,196.000 148.648,196.000 148.951 C 196.000 149.254,195.744 149.714,195.431 149.974 C 195.118 150.234,194.743 151.156,194.596 152.023 C 194.450 152.890,194.166 153.600,193.965 153.600 C 193.764 153.600,193.600 153.870,193.600 154.200 C 193.600 154.530,193.736 154.800,193.903 154.800 C 194.069 154.800,194.428 155.513,194.699 156.383 C 194.971 157.254,195.793 158.567,196.526 159.299 C 197.259 160.032,198.104 161.186,198.404 161.863 C 199.477 164.287,205.527 166.440,206.800 164.850 C 206.910 164.712,207.675 164.257,208.500 163.837 C 209.990 163.079,210.635 161.239,209.628 160.617 C 209.423 160.491,209.143 159.355,209.006 158.094 C 208.601 154.380,207.957 151.984,206.704 149.537 C 204.855 145.925,204.384 145.911,205.308 149.496 C 206.324 153.442,206.587 156.149,206.086 157.521 C 205.870 158.114,205.463 159.365,205.182 160.300 C 204.710 161.873,204.000 162.614,204.000 161.534 C 204.000 160.838,202.688 158.000,202.366 158.000 C 202.213 158.000,201.975 157.555,201.839 157.011 C 201.702 156.467,201.233 155.689,200.797 155.283 C 200.009 154.549,200.018 154.513,202.038 150.441 C 204.393 145.693,204.424 145.963,201.600 146.679 " stroke="none" fill="#945c04" fill-rule="evenodd"></path><path id="path2" d="M252.300 88.012 C 253.217 88.381,253.545 89.200,252.776 89.200 C 252.543 89.200,252.464 89.020,252.600 88.800 C 252.736 88.580,252.466 88.400,252.000 88.400 C 251.433 88.400,251.249 88.565,251.445 88.900 C 251.606 89.175,251.377 89.085,250.937 88.700 C 248.296 86.390,246.073 88.921,246.017 94.300 L 246.000 96.000 242.300 96.045 C 240.265 96.070,237.550 96.062,236.266 96.028 C 234.461 95.980,233.998 96.083,234.225 96.483 C 234.460 96.898,234.411 96.901,233.979 96.500 C 233.682 96.225,232.992 96.000,232.444 96.000 C 231.479 96.000,231.472 96.019,232.224 96.602 C 232.946 97.163,232.920 97.176,231.851 96.794 C 231.031 96.500,230.545 96.514,230.151 96.840 C 229.393 97.470,229.458 98.400,230.261 98.400 C 230.799 98.400,230.758 98.543,230.040 99.165 C 229.316 99.793,229.174 100.296,229.250 101.961 C 229.363 104.438,229.466 104.334,226.791 104.436 C 225.586 104.483,224.340 104.719,224.023 104.960 C 223.586 105.294,223.519 105.279,223.747 104.900 C 223.960 104.544,223.701 104.400,222.847 104.400 C 221.474 104.400,220.927 104.989,221.576 105.771 C 221.911 106.175,221.870 106.364,221.407 106.542 C 220.920 106.729,220.815 107.375,220.897 109.689 L 221.000 112.600 218.300 112.478 C 216.508 112.396,215.600 112.505,215.600 112.801 C 215.600 113.046,215.808 113.119,216.062 112.962 C 216.359 112.778,216.415 112.853,216.217 113.173 C 216.022 113.488,215.770 113.530,215.528 113.288 C 214.994 112.754,212.855 114.846,213.303 115.464 C 213.500 115.736,213.439 116.052,213.158 116.226 C 212.853 116.415,212.781 116.355,212.962 116.062 C 213.119 115.808,213.043 115.600,212.793 115.600 C 212.516 115.600,212.366 116.259,212.407 117.300 C 212.538 120.602,212.479 120.800,211.376 120.800 C 210.674 120.800,210.441 120.957,210.635 121.300 C 210.861 121.700,210.810 121.700,210.379 121.300 C 209.724 120.692,207.200 120.632,207.200 121.224 C 207.200 121.457,207.031 121.543,206.825 121.415 C 206.618 121.288,206.264 121.502,206.037 121.892 C 205.648 122.559,205.624 122.557,205.612 121.851 C 205.602 121.231,205.497 121.188,205.000 121.600 C 204.264 122.211,204.181 124.428,204.900 124.253 C 205.175 124.186,205.264 124.207,205.098 124.300 C 204.931 124.392,204.914 124.661,205.059 124.896 C 205.212 125.143,205.136 125.207,204.879 125.049 C 204.556 124.849,204.457 127.705,204.517 135.469 L 204.600 146.164 205.503 146.382 C 206.738 146.680,209.200 148.702,209.200 149.417 C 209.200 149.738,209.365 150.000,209.567 150.000 C 210.043 150.000,211.501 156.585,211.833 160.233 C 212.223 164.532,210.111 167.665,206.144 168.672 C 204.552 169.076,199.243 168.611,198.800 168.029 C 198.690 167.885,197.835 167.520,196.900 167.219 C 195.965 166.918,195.200 166.516,195.200 166.326 C 195.200 166.136,194.750 165.809,194.200 165.600 C 193.650 165.391,193.200 164.954,193.200 164.630 C 193.200 164.305,192.950 163.896,192.645 163.720 C 191.956 163.322,190.800 159.980,190.800 158.386 C 190.800 157.734,190.620 157.200,190.400 157.200 C 190.171 157.200,190.000 156.000,190.000 154.400 C 190.000 152.860,190.144 151.600,190.320 151.600 C 190.496 151.600,190.861 150.527,191.132 149.216 C 191.403 147.905,191.854 146.600,192.135 146.316 C 192.416 146.032,192.892 144.900,193.192 143.800 C 193.493 142.700,193.978 141.656,194.269 141.480 C 194.561 141.304,194.800 140.912,194.800 140.609 C 194.800 139.458,195.946 138.861,197.897 138.994 C 198.943 139.066,200.013 138.949,200.274 138.735 C 200.584 138.480,201.021 138.490,201.532 138.764 C 202.125 139.081,202.435 139.040,202.803 138.596 C 203.071 138.273,203.437 138.099,203.616 138.210 C 204.052 138.479,203.636 133.125,203.178 132.573 C 202.960 132.310,203.011 131.934,203.310 131.612 C 203.699 131.192,203.693 131.143,203.282 131.376 C 202.998 131.537,202.511 131.458,202.200 131.200 C 201.549 130.660,200.655 131.042,201.055 131.689 C 201.219 131.955,201.137 132.008,200.842 131.826 C 199.993 131.301,201.150 130.378,202.346 130.627 L 203.400 130.846 202.400 130.237 C 201.085 129.437,199.841 129.409,200.140 130.187 C 200.264 130.510,200.165 130.898,199.921 131.049 C 199.667 131.205,199.588 131.143,199.736 130.904 C 199.879 130.673,199.726 130.381,199.398 130.254 C 199.069 130.128,198.795 130.244,198.788 130.513 C 198.781 130.786,198.608 130.713,198.393 130.345 C 198.182 129.984,197.558 129.576,197.005 129.437 C 196.452 129.298,196.000 128.918,196.000 128.592 C 196.000 128.267,195.820 128.000,195.600 128.000 C 195.380 128.000,195.200 127.809,195.200 127.576 C 195.200 127.343,195.380 127.264,195.600 127.400 C 195.842 127.549,196.000 127.004,196.000 126.024 C 196.000 124.793,195.843 124.400,195.351 124.400 C 194.806 124.400,194.786 124.299,195.225 123.770 C 195.763 123.122,195.049 122.199,194.347 122.633 C 194.186 122.732,193.940 122.627,193.800 122.400 C 193.660 122.173,193.377 122.091,193.172 122.217 C 192.968 122.344,192.800 122.190,192.800 121.876 C 192.800 121.303,190.926 120.813,188.700 120.804 C 187.829 120.801,187.599 120.613,187.594 119.900 C 187.590 119.314,187.479 119.172,187.276 119.492 C 187.046 119.853,186.769 119.757,186.233 119.130 C 185.618 118.412,185.606 118.317,186.151 118.526 C 186.530 118.671,186.802 118.572,186.805 118.287 C 186.808 118.019,186.927 117.367,187.068 116.837 C 187.264 116.108,187.200 115.953,186.805 116.197 C 186.402 116.446,186.345 116.255,186.554 115.360 C 186.703 114.722,186.683 114.409,186.511 114.664 C 186.287 114.995,185.913 114.893,185.199 114.304 L 184.200 113.481 185.400 113.746 C 186.374 113.961,186.464 113.929,185.880 113.575 C 184.436 112.699,180.507 112.557,181.200 113.405 C 181.780 114.115,181.764 114.116,180.716 113.434 C 179.909 112.909,178.531 112.682,175.332 112.548 C 170.212 112.332,170.788 112.783,170.675 108.901 C 170.617 106.931,170.373 105.450,170.041 105.050 C 169.404 104.282,168.211 104.154,168.641 104.900 C 168.799 105.175,168.781 105.267,168.601 105.103 C 168.421 104.940,167.987 105.030,167.637 105.303 C 167.078 105.740,167.065 105.717,167.532 105.120 C 168.022 104.495,167.861 104.444,165.532 104.492 C 164.140 104.521,159.175 104.403,154.500 104.231 L 146.000 103.917 146.000 102.958 C 146.000 102.357,145.768 102.000,145.376 102.000 C 145.033 102.000,144.866 101.817,145.004 101.593 C 145.142 101.370,145.423 101.291,145.628 101.417 C 145.832 101.544,146.000 101.277,146.000 100.824 C 146.000 100.371,145.809 100.000,145.575 100.000 C 145.341 100.000,145.191 99.685,145.242 99.300 C 145.465 97.617,143.703 95.662,142.996 96.807 C 142.858 97.030,142.558 97.098,142.330 96.957 C 142.062 96.791,142.107 96.578,142.457 96.356 C 142.814 96.130,142.462 96.010,141.431 96.006 C 140.511 96.003,139.522 96.289,139.038 96.700 C 138.286 97.339,138.260 97.340,138.745 96.713 C 139.246 96.066,137.286 96.027,104.200 96.027 C 71.112 96.027,69.155 96.066,69.662 96.713 C 70.136 97.318,70.124 97.341,69.563 96.903 C 69.213 96.630,68.779 96.540,68.599 96.703 C 68.419 96.867,68.401 96.775,68.559 96.500 C 68.772 96.131,68.395 96.007,67.124 96.028 C 65.840 96.049,65.604 96.138,66.200 96.378 C 66.640 96.555,67.163 96.605,67.362 96.488 C 67.561 96.372,67.613 96.455,67.479 96.673 C 67.206 97.113,66.197 97.079,65.038 96.589 C 63.679 96.015,62.857 97.603,62.847 100.822 C 62.840 102.889,62.964 103.553,63.319 103.353 C 63.650 103.167,63.675 103.220,63.398 103.523 C 63.038 103.918,57.301 104.211,45.400 104.440 C 43.640 104.474,41.940 104.704,41.623 104.951 C 41.182 105.294,41.117 105.282,41.347 104.900 C 41.538 104.582,41.411 104.400,41.000 104.400 C 40.644 104.400,40.445 104.550,40.559 104.733 C 40.672 104.917,40.511 105.067,40.200 105.067 C 39.889 105.067,39.717 104.935,39.816 104.773 C 39.916 104.612,39.369 104.480,38.600 104.480 C 37.831 104.480,37.275 104.597,37.363 104.740 C 37.452 104.883,36.673 104.940,35.631 104.866 C 33.233 104.696,30.922 105.626,30.413 106.965 C 29.694 108.857,29.465 111.956,29.998 112.597 C 30.342 113.013,30.358 113.200,30.049 113.200 C 29.802 113.200,29.600 113.011,29.600 112.780 C 29.600 112.506,29.369 112.489,28.934 112.733 C 28.567 112.938,27.619 113.019,26.826 112.913 C 24.027 112.537,22.091 113.404,21.528 115.284 C 21.155 116.527,21.146 116.982,21.493 117.098 C 21.747 117.182,21.856 117.510,21.735 117.826 C 21.611 118.149,21.752 118.405,22.057 118.412 C 22.417 118.420,22.365 118.561,21.900 118.832 C 21.515 119.056,21.200 119.566,21.200 119.964 C 21.200 120.562,20.764 120.728,18.717 120.914 C 16.995 121.070,16.075 121.356,15.717 121.846 C 15.243 122.493,15.200 122.496,15.200 121.876 C 15.200 121.027,14.256 121.001,13.429 121.829 C 12.646 122.611,12.540 126.397,13.300 126.406 C 13.660 126.411,13.644 126.511,13.245 126.764 C 12.912 126.974,12.767 127.517,12.883 128.120 C 13.043 128.960,12.896 129.161,11.986 129.343 C 11.387 129.463,10.645 129.813,10.337 130.120 C 9.857 130.600,9.699 130.596,9.232 130.097 C 8.655 129.479,6.203 129.637,5.503 130.337 C 4.447 131.393,3.882 141.957,4.915 141.338 C 5.288 141.114,5.293 141.180,4.935 141.623 C 4.139 142.609,4.210 154.642,5.013 154.950 C 5.364 155.084,5.540 155.374,5.405 155.593 C 5.262 155.823,5.422 155.890,5.784 155.751 C 6.129 155.619,6.692 155.744,7.036 156.030 C 7.552 156.458,7.725 156.448,8.024 155.974 C 8.336 155.482,8.389 155.485,8.400 156.000 C 8.411 156.533,8.455 156.533,8.800 156.000 C 9.013 155.670,9.191 155.580,9.194 155.800 C 9.197 156.020,9.830 156.222,10.600 156.250 C 11.370 156.278,12.273 156.322,12.606 156.350 C 12.939 156.378,13.540 156.939,13.941 157.599 C 14.342 158.258,14.789 158.678,14.935 158.532 C 15.081 158.386,15.200 158.646,15.200 159.110 C 15.200 159.573,15.380 160.064,15.600 160.200 C 15.820 160.336,16.000 160.872,16.000 161.390 C 16.000 161.909,16.178 162.393,16.396 162.467 C 16.614 162.540,17.002 164.085,17.258 165.900 C 17.515 167.715,17.877 169.200,18.062 169.200 C 18.248 169.200,18.400 169.642,18.400 170.181 C 18.400 172.230,20.814 175.570,22.736 176.180 C 23.141 176.308,23.726 176.894,24.036 177.482 C 24.346 178.070,24.960 178.941,25.400 179.418 C 25.840 179.895,26.560 180.753,27.000 181.324 C 27.440 181.896,28.015 182.371,28.277 182.382 C 28.540 182.392,28.990 182.728,29.277 183.129 C 29.565 183.530,30.385 184.114,31.100 184.427 C 31.815 184.739,32.400 185.106,32.400 185.242 C 32.400 186.656,37.058 190.000,39.026 190.000 C 39.562 190.000,40.000 190.180,40.000 190.400 C 40.000 190.620,40.443 190.800,40.984 190.800 C 42.953 190.800,48.059 191.716,48.524 192.152 C 48.786 192.398,49.540 192.870,50.200 193.200 C 50.860 193.530,52.030 194.460,52.800 195.267 C 53.710 196.220,54.725 196.831,55.700 197.012 C 56.525 197.164,57.200 197.425,57.200 197.591 C 57.200 197.757,58.550 198.133,60.200 198.426 C 61.850 198.719,63.200 199.103,63.200 199.280 C 63.200 199.456,63.860 199.600,64.667 199.600 C 66.842 199.600,71.200 200.428,71.200 200.841 C 71.200 201.038,71.436 201.200,71.725 201.200 C 72.264 201.200,73.266 202.051,74.508 203.565 C 75.288 204.516,76.385 208.664,76.394 210.700 C 76.397 211.415,76.580 212.000,76.800 212.000 C 77.042 212.000,77.200 213.727,77.200 216.381 C 77.200 220.387,77.656 222.800,78.414 222.800 C 78.571 222.800,78.812 223.361,78.949 224.046 C 79.086 224.731,79.874 225.953,80.699 226.760 C 81.525 227.567,82.470 228.761,82.800 229.414 C 83.130 230.066,83.715 230.835,84.100 231.123 C 84.485 231.410,84.800 231.886,84.800 232.180 C 84.800 232.474,85.036 232.805,85.324 232.916 C 85.613 233.026,86.070 233.855,86.340 234.758 C 86.611 235.661,87.005 236.400,87.216 236.400 C 87.427 236.400,87.600 236.679,87.600 237.021 C 87.600 237.362,88.140 237.830,88.800 238.060 C 89.460 238.290,90.000 238.612,90.000 238.775 C 90.000 238.938,90.720 239.310,91.600 239.600 C 92.480 239.890,93.200 240.244,93.200 240.385 C 93.200 240.526,94.100 240.966,95.200 241.361 C 96.300 241.757,97.200 242.242,97.200 242.440 C 97.200 242.638,97.449 242.800,97.754 242.800 C 98.058 242.800,99.183 243.678,100.254 244.750 C 101.324 245.823,102.605 246.825,103.100 246.977 C 103.595 247.129,104.000 247.395,104.000 247.568 C 104.000 247.740,106.205 248.111,108.900 248.391 C 111.595 248.671,113.890 249.016,114.000 249.157 C 114.110 249.298,115.072 249.639,116.137 249.915 C 117.202 250.191,118.340 250.683,118.665 251.008 C 118.991 251.334,119.445 251.600,119.675 251.600 C 119.905 251.600,120.761 252.288,121.577 253.128 C 122.565 254.146,123.718 254.838,125.030 255.199 C 126.114 255.497,127.105 255.896,127.233 256.086 C 127.509 256.494,135.278 257.184,139.700 257.193 C 141.496 257.197,142.800 257.368,142.800 257.600 C 142.800 257.862,151.133 258.000,167.000 258.000 C 182.867 258.000,191.200 257.862,191.200 257.600 C 191.200 257.369,192.592 257.184,194.500 257.162 C 199.996 257.100,205.212 256.626,205.515 256.162 C 205.672 255.920,206.319 255.596,206.952 255.441 C 207.586 255.286,208.894 254.369,209.859 253.404 C 210.824 252.439,212.007 251.525,212.488 251.372 C 212.969 251.219,213.604 250.853,213.898 250.559 C 214.193 250.264,215.326 249.905,216.417 249.760 C 217.508 249.615,218.400 249.373,218.400 249.220 C 218.400 249.068,220.065 248.723,222.100 248.453 C 224.135 248.183,225.860 247.791,225.933 247.581 C 226.007 247.372,226.367 247.199,226.733 247.198 C 228.692 247.191,230.456 246.309,231.065 245.032 C 231.461 244.202,232.196 243.515,233.047 243.181 C 233.791 242.890,234.400 242.533,234.400 242.389 C 234.400 242.245,235.471 241.803,236.779 241.406 C 238.088 241.010,239.252 240.442,239.367 240.143 C 239.481 239.844,239.778 239.600,240.027 239.600 C 240.493 239.600,242.800 237.318,242.800 236.856 C 242.800 236.519,245.045 234.400,245.404 234.400 C 245.898 234.400,247.931 232.005,248.470 230.788 C 248.759 230.135,249.111 229.600,249.252 229.600 C 249.394 229.600,249.730 228.430,250.000 227.000 C 250.270 225.570,250.611 224.400,250.758 224.400 C 250.905 224.400,251.265 223.590,251.557 222.600 C 251.849 221.610,252.248 220.800,252.444 220.800 C 252.640 220.800,252.800 220.536,252.800 220.214 C 252.800 219.225,254.067 215.817,254.547 215.515 C 255.169 215.123,255.177 203.288,254.556 202.887 C 254.312 202.729,253.791 201.970,253.400 201.200 C 253.009 200.430,252.570 199.710,252.425 199.600 C 251.271 198.725,250.657 188.459,251.700 187.467 C 253.150 186.086,254.496 185.912,255.484 186.978 C 256.006 187.540,256.592 188.000,256.788 188.000 C 256.983 188.000,257.427 188.284,257.774 188.631 C 258.444 189.301,262.173 189.979,265.267 189.992 C 266.398 189.997,267.199 190.197,267.300 190.500 C 267.520 191.161,324.666 191.240,325.114 190.580 C 325.271 190.349,327.288 189.929,329.596 189.647 C 331.904 189.366,333.884 188.993,333.996 188.818 C 334.108 188.643,334.776 188.376,335.480 188.223 C 336.184 188.070,337.467 187.259,338.332 186.419 C 339.197 185.580,340.601 184.666,341.452 184.389 C 342.304 184.111,343.105 183.723,343.233 183.526 C 343.362 183.329,345.027 182.955,346.933 182.695 C 348.840 182.435,350.400 182.083,350.400 181.911 C 350.400 181.740,351.221 181.600,352.225 181.600 C 355.308 181.600,357.778 180.531,360.196 178.153 C 361.399 176.969,362.544 176.000,362.742 176.000 C 362.940 176.000,363.820 175.323,364.699 174.495 C 365.578 173.668,366.800 172.723,367.414 172.395 C 368.987 171.558,371.829 168.635,372.463 167.203 C 372.756 166.542,373.136 166.000,373.308 166.000 C 373.479 166.000,373.791 165.550,374.000 165.000 C 374.209 164.450,374.537 164.000,374.729 164.000 C 374.921 164.000,375.418 163.235,375.834 162.300 C 376.249 161.365,377.266 159.960,378.094 159.177 C 379.223 158.109,379.600 157.434,379.600 156.477 C 379.600 155.775,379.756 155.200,379.947 155.200 C 380.137 155.200,380.419 152.185,380.573 148.500 C 381.180 133.930,381.973 129.194,383.631 130.219 C 383.834 130.344,384.000 130.257,384.000 130.024 C 384.000 129.791,384.553 129.600,385.229 129.600 C 386.675 129.600,388.034 128.516,387.220 128.012 C 386.813 127.761,386.820 127.653,387.255 127.480 C 387.666 127.317,387.674 127.255,387.286 127.232 C 386.886 127.207,386.873 127.011,387.227 126.349 C 387.509 125.823,387.537 125.403,387.301 125.249 C 386.574 124.774,386.508 123.796,387.152 123.031 C 387.508 122.608,387.575 122.394,387.300 122.555 C 387.025 122.716,386.800 122.657,386.800 122.424 C 386.800 122.191,386.980 122.000,387.200 122.000 C 387.420 122.000,387.597 121.325,387.594 120.500 C 387.590 119.626,387.457 119.205,387.276 119.492 C 387.046 119.853,386.769 119.757,386.233 119.130 C 385.618 118.412,385.606 118.317,386.151 118.526 C 386.530 118.671,386.802 118.572,386.805 118.287 C 386.808 118.019,386.927 117.367,387.068 116.837 C 387.264 116.108,387.200 115.953,386.805 116.197 C 386.402 116.446,386.345 116.255,386.554 115.360 C 386.703 114.722,386.683 114.409,386.511 114.664 C 386.287 114.995,385.913 114.893,385.199 114.304 L 384.200 113.481 385.400 113.746 C 386.374 113.961,386.464 113.929,385.880 113.575 C 384.591 112.793,380.500 112.549,381.112 113.290 C 381.558 113.831,381.443 113.826,380.225 113.255 C 379.245 112.796,378.822 112.330,378.813 111.700 C 378.797 110.624,378.112 110.533,377.302 111.500 C 376.934 111.939,376.965 111.780,377.385 111.073 C 377.922 110.167,377.957 109.830,377.559 109.351 C 377.161 108.871,377.171 108.779,377.609 108.877 C 377.908 108.945,378.198 108.640,378.253 108.200 C 378.313 107.724,378.275 107.660,378.159 108.041 C 378.026 108.479,377.651 108.622,376.976 108.493 C 375.850 108.278,375.395 107.774,375.993 107.404 C 376.217 107.266,376.400 107.343,376.400 107.576 C 376.400 107.809,376.625 107.994,376.900 107.987 C 377.175 107.980,376.905 107.539,376.300 107.007 C 375.051 105.907,374.942 105.600,375.800 105.600 C 376.130 105.600,376.400 105.737,376.400 105.904 C 376.400 106.071,376.753 106.428,377.185 106.698 C 377.845 107.110,377.933 107.092,377.738 106.583 C 377.196 105.170,370.159 103.854,368.841 104.919 C 368.514 105.183,368.359 105.212,368.496 104.983 C 368.658 104.711,367.680 104.531,365.689 104.466 C 362.003 104.346,362.375 104.727,362.356 101.053 C 362.347 99.374,362.184 98.000,361.993 98.000 C 361.802 98.000,361.713 97.650,361.796 97.223 C 361.906 96.648,361.780 96.510,361.307 96.691 C 360.914 96.842,360.769 96.773,360.931 96.512 C 361.102 96.235,360.469 96.088,359.096 96.087 C 357.943 96.085,354.525 96.066,351.500 96.042 L 346.000 96.000 346.000 94.800 C 346.000 93.980,345.803 93.600,345.376 93.600 C 345.033 93.600,344.866 93.417,345.004 93.193 C 345.142 92.970,345.423 92.891,345.628 93.017 C 345.832 93.144,346.000 92.877,346.000 92.424 C 346.000 91.971,345.808 91.600,345.573 91.600 C 345.328 91.600,345.254 91.259,345.401 90.798 C 345.570 90.265,345.445 89.915,345.028 89.755 C 344.682 89.623,344.400 89.159,344.400 88.725 C 344.400 88.057,344.217 87.977,343.200 88.200 C 342.445 88.366,342.000 88.303,342.000 88.032 C 342.000 87.786,341.215 87.600,340.176 87.600 C 339.063 87.600,338.449 87.756,338.600 88.000 C 338.736 88.220,338.667 88.400,338.447 88.400 C 338.227 88.400,337.940 88.226,337.809 88.014 C 337.318 87.221,256.897 87.515,256.383 88.312 C 255.967 88.957,255.953 88.957,256.157 88.300 C 256.349 87.683,256.079 87.603,253.887 87.625 C 251.990 87.645,251.614 87.737,252.300 88.012 M250.051 89.100 C 250.549 89.734,250.534 89.749,249.900 89.251 C 249.096 88.621,248.954 89.160,249.700 90.009 C 249.975 90.323,249.840 90.282,249.400 89.920 C 248.538 89.210,247.571 89.579,247.096 90.800 C 246.907 91.287,246.857 91.271,246.832 90.716 C 246.756 89.085,249.112 87.903,250.051 89.100 M246.873 94.879 C 246.723 95.033,246.570 94.403,246.532 93.479 L 246.465 91.800 246.806 93.200 C 246.993 93.970,247.024 94.726,246.873 94.879 M38.262 105.783 C 38.132 106.122,37.838 106.400,37.609 106.400 C 37.346 106.400,37.372 106.113,37.681 105.618 C 38.233 104.734,38.622 104.845,38.262 105.783 M36.247 106.170 C 36.608 106.949,36.588 107.094,36.147 106.924 C 35.846 106.809,35.600 106.464,35.600 106.157 C 35.600 105.851,35.221 105.600,34.757 105.600 C 34.203 105.600,33.987 105.790,34.127 106.155 C 34.269 106.525,34.116 106.651,33.668 106.534 C 32.954 106.347,31.200 107.728,31.200 108.478 C 31.200 108.723,31.643 108.409,32.184 107.779 C 32.725 107.150,33.250 106.717,33.351 106.817 C 33.452 106.918,33.020 107.575,32.393 108.278 C 31.672 109.085,31.172 109.379,31.036 109.077 C 30.918 108.815,30.866 109.050,30.920 109.600 C 30.974 110.150,31.221 110.561,31.468 110.514 C 31.748 110.460,31.826 110.762,31.675 111.314 C 31.466 112.077,31.411 112.099,31.281 111.471 C 31.198 111.069,30.901 110.829,30.621 110.937 C 29.764 111.266,30.748 107.526,31.778 106.541 C 33.405 104.985,35.613 104.802,36.247 106.170 M374.996 105.607 C 374.858 105.830,374.576 105.909,374.369 105.781 C 374.163 105.653,373.712 105.830,373.368 106.174 C 373.024 106.519,372.531 106.786,372.271 106.768 C 371.940 106.746,371.948 106.677,372.300 106.535 C 372.575 106.424,372.800 106.078,372.800 105.767 C 372.800 105.401,373.235 105.200,374.024 105.200 C 374.751 105.200,375.145 105.365,374.996 105.607 M375.200 106.824 C 375.200 107.057,375.425 107.112,375.700 106.947 C 376.057 106.733,376.047 106.836,375.666 107.306 C 375.367 107.674,375.269 108.193,375.442 108.482 C 375.663 108.850,375.552 108.836,375.059 108.436 C 374.676 108.126,374.452 107.642,374.559 107.362 C 374.667 107.081,374.540 106.764,374.278 106.657 C 374.015 106.551,374.115 106.449,374.500 106.432 C 374.885 106.414,375.200 106.591,375.200 106.824 M213.169 112.967 C 213.153 112.985,213.080 113.303,213.009 113.672 C 212.860 114.443,213.822 114.240,214.131 113.436 C 214.271 113.072,213.443 112.668,213.169 112.967 M24.629 113.978 C 24.629 114.530,24.492 114.642,24.157 114.364 C 23.420 113.753,22.225 115.107,22.843 115.852 C 23.222 116.309,23.186 116.370,22.657 116.166 C 21.461 115.708,21.931 114.487,23.600 113.716 C 24.150 113.462,24.606 113.242,24.614 113.227 C 24.622 113.212,24.629 113.550,24.629 113.978 M185.440 115.811 C 185.359 116.357,184.800 116.697,184.800 116.200 C 184.800 116.090,184.800 115.820,184.800 115.600 C 184.800 115.380,184.964 115.200,185.165 115.200 C 185.365 115.200,185.489 115.475,185.440 115.811 M385.440 115.811 C 385.359 116.357,384.800 116.697,384.800 116.200 C 384.800 116.090,384.800 115.820,384.800 115.600 C 384.800 115.380,384.964 115.200,385.165 115.200 C 385.365 115.200,385.489 115.475,385.440 115.811 M193.688 121.665 C 193.774 121.921,194.159 122.176,194.544 122.233 C 195.107 122.316,195.152 122.224,194.773 121.768 C 194.206 121.084,193.471 121.014,193.688 121.665 M7.960 131.300 C 8.492 132.165,8.484 132.174,7.757 131.531 C 6.940 130.808,5.970 131.181,5.496 132.400 C 5.305 132.894,5.258 132.881,5.232 132.329 C 5.152 130.636,7.101 129.901,7.960 131.300 M5.651 133.877 C 5.958 134.255,5.993 134.429,5.730 134.272 C 5.456 134.108,5.183 134.284,5.075 134.695 C 4.973 135.083,4.908 134.905,4.932 134.300 C 4.982 133.002,4.954 133.018,5.651 133.877 " stroke="none" fill="#e8a81c" fill-rule="evenodd"></path><path id="path3" d="M385.499 130.704 C 384.926 131.307,384.329 132.340,384.173 133.000 C 384.017 133.660,383.753 134.380,383.586 134.600 C 383.418 134.820,383.056 137.070,382.781 139.600 C 382.505 142.130,382.127 144.371,381.940 144.580 C 381.753 144.789,381.600 146.500,381.600 148.382 C 381.600 152.715,380.512 162.157,379.993 162.333 C 379.777 162.407,379.600 163.071,379.600 163.811 C 379.600 164.653,379.328 165.350,378.871 165.677 C 378.470 165.965,377.886 166.785,377.573 167.500 C 377.261 168.215,376.877 168.800,376.721 168.800 C 376.565 168.800,376.133 169.442,375.761 170.227 C 374.959 171.915,372.210 174.756,370.566 175.594 C 369.925 175.921,369.022 176.551,368.560 176.994 C 368.097 177.437,367.152 178.225,366.460 178.745 C 365.767 179.265,365.200 179.940,365.200 180.245 C 365.200 180.550,365.065 180.800,364.900 180.800 C 364.735 180.801,364.071 181.256,363.425 181.812 C 362.778 182.368,361.788 182.935,361.225 183.073 C 360.661 183.211,360.100 183.475,359.977 183.660 C 359.854 183.846,358.279 184.206,356.477 184.461 C 354.675 184.716,353.200 185.077,353.200 185.262 C 353.200 185.448,352.741 185.600,352.179 185.600 C 349.543 185.600,345.466 186.906,344.088 188.192 C 341.416 190.685,341.077 190.915,339.280 191.456 C 338.237 191.770,335.640 192.000,333.136 192.000 C 330.512 192.000,328.800 192.158,328.800 192.400 C 328.800 192.620,328.416 192.800,327.946 192.800 C 326.934 192.800,323.886 193.652,323.600 194.015 C 322.233 195.751,268.652 195.702,267.578 193.964 C 267.192 193.339,260.708 193.280,260.501 193.900 C 260.409 194.175,260.088 194.400,259.787 194.400 C 258.942 194.400,256.951 196.399,257.473 196.724 C 259.584 198.041,259.637 213.996,257.536 215.601 C 257.391 215.712,257.040 216.927,256.756 218.301 C 256.472 219.676,256.115 220.800,255.961 220.800 C 255.808 220.800,255.455 222.330,255.177 224.200 C 254.899 226.070,254.554 227.600,254.411 227.600 C 254.268 227.600,253.828 228.680,253.432 230.000 C 253.037 231.320,252.582 232.400,252.421 232.400 C 252.260 232.400,251.930 232.836,251.687 233.369 C 251.184 234.472,250.452 235.409,248.259 237.753 C 247.411 238.659,246.511 239.688,246.259 240.040 C 246.006 240.393,245.215 240.982,244.500 241.351 C 243.785 241.719,243.200 242.196,243.200 242.410 C 243.200 242.625,242.964 242.800,242.675 242.800 C 242.387 242.800,241.792 243.135,241.353 243.543 C 240.914 243.952,239.890 244.506,239.077 244.774 C 238.265 245.043,237.600 245.428,237.600 245.631 C 237.600 245.834,237.326 246.000,236.991 246.000 C 236.657 246.000,236.183 246.438,235.940 246.973 C 235.696 247.508,234.980 248.160,234.348 248.421 C 233.717 248.683,233.200 249.048,233.200 249.232 C 233.200 249.417,232.435 249.791,231.500 250.064 C 230.565 250.338,229.710 250.678,229.600 250.821 C 229.490 250.963,227.423 251.300,225.006 251.568 C 222.589 251.837,220.519 252.188,220.406 252.348 C 220.293 252.508,219.462 252.854,218.560 253.118 C 217.658 253.381,216.098 254.362,215.092 255.298 C 214.087 256.234,212.966 257.245,212.602 257.544 C 211.821 258.186,208.257 259.188,206.733 259.195 C 206.147 259.198,205.607 259.362,205.533 259.559 C 205.460 259.757,202.700 260.141,199.400 260.413 C 195.963 260.697,193.278 261.099,193.115 261.354 C 192.710 261.986,141.292 261.988,140.885 261.356 C 140.720 261.098,137.873 260.698,134.100 260.403 C 130.525 260.123,127.600 259.738,127.600 259.547 C 127.600 259.356,126.961 259.200,126.179 259.200 C 124.217 259.200,119.200 258.020,119.200 257.558 C 119.200 257.350,118.750 257.009,118.200 256.800 C 117.650 256.591,117.200 256.263,117.200 256.072 C 117.200 254.923,114.074 252.800,112.381 252.800 C 111.952 252.800,111.600 252.650,111.600 252.468 C 111.600 252.285,109.498 251.929,106.930 251.678 C 104.361 251.426,102.156 251.073,102.030 250.893 C 101.903 250.714,101.035 250.320,100.100 250.019 C 99.165 249.718,98.400 249.317,98.400 249.127 C 98.400 248.938,97.950 248.578,97.400 248.327 C 96.850 248.077,96.400 247.627,96.400 247.327 C 96.400 247.028,95.950 246.578,95.400 246.327 C 94.850 246.077,94.400 245.749,94.400 245.599 C 94.400 245.449,93.699 245.116,92.841 244.860 C 91.984 244.603,91.186 244.141,91.068 243.834 C 90.951 243.527,90.302 243.154,89.627 243.006 C 88.952 242.858,88.400 242.583,88.400 242.395 C 88.400 242.207,87.995 241.928,87.500 241.774 C 86.438 241.445,84.010 239.200,84.004 238.543 C 84.002 238.291,83.730 237.982,83.400 237.855 C 83.070 237.729,82.800 237.377,82.800 237.075 C 82.800 236.772,82.350 236.001,81.800 235.362 C 81.251 234.723,80.801 233.981,80.800 233.714 C 80.800 233.447,80.456 233.044,80.036 232.819 C 79.574 232.572,79.165 231.775,79.001 230.805 C 78.852 229.922,78.586 229.200,78.409 229.200 C 78.233 229.200,77.972 228.576,77.829 227.813 C 77.686 227.050,77.343 226.195,77.067 225.913 C 76.792 225.631,76.321 224.800,76.020 224.066 C 75.720 223.332,75.188 222.446,74.837 222.096 C 74.346 221.606,74.151 220.280,73.986 216.307 C 73.869 213.473,73.591 211.029,73.370 210.877 C 73.148 210.725,72.726 209.853,72.433 208.940 C 72.095 207.893,71.516 207.082,70.861 206.740 C 70.291 206.443,69.517 205.930,69.141 205.600 C 68.765 205.270,68.192 204.784,67.867 204.520 C 67.542 204.256,65.639 203.726,63.638 203.342 C 61.637 202.959,60.000 202.512,60.000 202.349 C 60.000 202.186,58.650 201.825,57.000 201.548 C 55.350 201.271,54.000 200.917,54.000 200.762 C 54.000 200.607,53.100 200.264,52.000 200.000 C 50.900 199.736,50.000 199.358,50.000 199.160 C 50.000 198.962,49.775 198.798,49.500 198.796 C 49.225 198.793,48.390 198.163,47.644 197.396 C 46.898 196.628,45.953 196.000,45.544 196.000 C 45.135 196.000,44.800 195.845,44.800 195.655 C 44.800 195.465,43.675 195.074,42.300 194.787 C 40.925 194.500,39.710 194.146,39.600 194.000 C 39.490 193.854,38.330 193.523,37.022 193.265 C 35.714 193.007,34.544 192.651,34.422 192.475 C 34.300 192.299,33.570 191.906,32.800 191.602 C 31.318 191.016,29.892 189.738,29.458 188.606 C 29.314 188.231,28.849 187.833,28.426 187.723 C 28.002 187.612,27.559 187.269,27.440 186.961 C 27.322 186.652,26.994 186.397,26.713 186.394 C 26.168 186.387,22.400 182.696,22.400 182.169 C 22.400 181.819,20.374 179.906,18.429 178.420 C 16.999 177.326,15.606 174.610,15.298 172.313 C 15.186 171.481,14.958 170.800,14.792 170.800 C 14.625 170.800,14.372 170.174,14.228 169.410 C 13.559 165.843,13.030 165.245,10.503 165.203 C 6.912 165.144,6.618 165.106,6.332 164.668 C 5.832 163.900,4.884 164.034,5.095 164.843 C 5.204 165.259,5.115 165.600,4.897 165.600 C 4.680 165.600,4.485 166.455,4.464 167.500 C 4.441 168.685,4.554 169.195,4.765 168.855 C 5.015 168.452,5.145 168.436,5.264 168.793 C 5.419 169.258,7.286 169.499,11.265 169.568 C 13.373 169.604,13.257 169.342,13.812 175.304 C 13.951 176.791,14.320 178.263,14.632 178.575 C 14.945 178.887,15.200 179.368,15.200 179.643 C 15.200 180.712,16.187 182.800,16.693 182.800 C 16.986 182.800,17.327 183.065,17.451 183.389 C 17.576 183.713,18.288 184.093,19.035 184.233 C 19.781 184.373,20.979 185.005,21.696 185.637 C 22.413 186.270,23.113 186.790,23.251 186.794 C 23.390 186.797,23.739 187.385,24.028 188.100 C 24.317 188.815,24.789 189.544,25.077 189.720 C 25.364 189.896,25.600 190.305,25.600 190.630 C 25.600 190.954,26.050 191.391,26.600 191.600 C 27.150 191.809,27.600 192.136,27.600 192.326 C 27.600 192.516,28.365 192.918,29.300 193.219 C 30.235 193.520,31.103 193.913,31.229 194.092 C 31.355 194.270,33.020 194.626,34.929 194.881 C 36.838 195.137,38.400 195.493,38.400 195.673 C 38.400 195.853,38.753 196.000,39.184 196.000 C 39.616 196.000,40.201 196.283,40.484 196.629 C 42.197 198.718,43.511 199.941,44.300 200.181 C 44.795 200.331,45.200 200.593,45.200 200.763 C 45.200 200.933,46.235 201.315,47.500 201.613 C 48.765 201.910,49.890 202.261,50.000 202.392 C 50.110 202.523,52.450 202.952,55.200 203.345 C 57.950 203.738,60.264 204.238,60.343 204.457 C 60.483 204.849,61.051 205.403,63.354 207.394 C 64.406 208.303,66.646 209.192,67.900 209.198 C 68.175 209.199,68.400 209.380,68.400 209.600 C 68.400 209.820,68.745 210.000,69.167 210.000 C 70.237 210.000,71.200 210.413,71.200 210.871 C 71.200 211.084,71.470 211.527,71.800 211.857 C 72.259 212.316,72.400 213.467,72.400 216.747 C 72.400 221.161,72.455 221.348,74.400 223.585 C 75.260 224.573,76.400 226.767,76.400 227.432 C 76.400 227.745,76.567 228.000,76.772 228.000 C 76.976 228.000,77.356 229.035,77.615 230.300 C 77.874 231.565,78.224 232.780,78.391 233.000 C 78.559 233.220,78.908 234.059,79.167 234.865 C 79.427 235.670,79.885 236.424,80.186 236.539 C 80.487 236.655,80.941 237.751,81.195 238.975 C 81.449 240.199,81.795 241.200,81.964 241.200 C 82.133 241.200,82.469 241.633,82.710 242.163 C 82.976 242.746,83.632 243.231,84.374 243.394 C 85.048 243.542,85.600 243.829,85.600 244.032 C 85.600 244.234,85.902 244.400,86.272 244.400 C 87.246 244.400,89.600 245.306,89.600 245.680 C 89.600 245.856,89.843 246.000,90.140 246.000 C 90.437 246.000,91.013 246.810,91.421 247.799 C 91.829 248.788,92.465 249.694,92.834 249.811 C 93.203 249.928,93.892 250.359,94.365 250.770 C 94.838 251.180,95.894 251.641,96.712 251.795 C 97.529 251.948,98.291 252.224,98.405 252.408 C 98.519 252.593,101.850 253.045,105.806 253.413 C 109.763 253.782,113.010 254.109,113.023 254.142 C 113.035 254.174,113.305 255.067,113.623 256.126 C 114.042 257.525,114.528 258.237,115.400 258.726 C 116.060 259.097,116.703 259.538,116.828 259.707 C 117.173 260.172,119.627 260.800,121.097 260.800 C 121.814 260.800,122.400 260.980,122.400 261.200 C 122.400 261.430,123.630 261.598,125.300 261.595 C 130.830 261.587,138.122 262.483,138.973 263.275 C 139.401 263.674,139.947 264.000,140.187 264.000 C 140.426 264.000,140.922 264.350,141.288 264.778 C 141.654 265.205,142.594 265.675,143.377 265.822 C 144.160 265.969,144.800 266.249,144.800 266.445 C 144.800 266.648,154.320 266.800,167.000 266.800 C 179.210 266.800,189.200 266.659,189.200 266.487 C 189.200 266.315,189.997 265.939,190.971 265.652 C 191.945 265.364,192.839 264.875,192.958 264.564 C 193.077 264.254,193.440 264.000,193.765 264.000 C 194.089 264.000,194.590 263.674,194.877 263.276 C 195.394 262.560,202.676 261.592,207.500 261.598 C 208.435 261.599,209.200 261.420,209.200 261.200 C 209.200 260.980,209.731 260.800,210.380 260.800 C 212.151 260.800,215.600 259.985,215.600 259.567 C 215.600 259.365,215.827 259.200,216.104 259.200 C 217.046 259.200,218.769 257.201,219.196 255.614 C 219.692 253.772,219.385 253.860,227.578 253.218 C 230.535 252.986,233.055 252.653,233.178 252.479 C 233.300 252.304,234.165 251.938,235.100 251.664 C 236.035 251.391,236.800 251.007,236.800 250.811 C 236.800 250.615,237.157 250.341,237.594 250.202 C 238.449 249.931,241.600 246.890,241.600 246.336 C 241.600 246.151,241.870 246.000,242.200 246.000 C 242.530 246.000,242.800 245.834,242.800 245.631 C 242.800 245.428,243.475 245.043,244.300 244.774 C 245.125 244.506,245.944 244.042,246.120 243.743 C 246.296 243.445,246.766 243.200,247.166 243.200 C 247.565 243.200,248.501 242.663,249.246 242.006 C 249.991 241.350,250.727 240.810,250.882 240.806 C 251.037 240.803,251.282 240.167,251.427 239.394 C 251.572 238.621,251.913 237.856,252.183 237.694 C 252.454 237.532,253.010 236.500,253.417 235.400 C 253.825 234.300,254.273 233.310,254.413 233.200 C 254.553 233.090,254.889 231.380,255.160 229.400 C 255.431 227.420,255.821 225.740,256.026 225.667 C 256.232 225.593,256.400 225.112,256.400 224.597 C 256.400 223.427,257.277 219.469,257.596 219.200 C 257.727 219.090,258.086 218.216,258.395 217.257 C 258.704 216.299,259.191 215.425,259.478 215.315 C 259.765 215.205,260.000 214.865,260.000 214.561 C 260.000 214.256,260.360 213.782,260.800 213.507 C 261.666 212.967,262.077 202.000,261.232 202.000 C 261.029 202.000,260.804 200.650,260.732 198.999 C 260.659 197.349,260.748 195.999,260.929 195.999 C 261.109 196.000,261.511 195.747,261.820 195.437 C 262.422 194.836,265.679 195.012,265.933 195.660 C 266.007 195.847,266.686 196.000,267.442 196.000 C 268.501 196.000,268.917 196.218,269.250 196.949 C 269.655 197.840,271.763 198.800,273.313 198.800 C 273.654 198.800,274.008 199.025,274.100 199.300 C 274.271 199.815,319.065 200.321,321.023 199.830 C 321.643 199.674,322.038 199.093,322.398 197.806 C 322.683 196.789,323.144 196.000,323.452 196.000 C 323.753 196.000,324.000 195.837,324.000 195.637 C 324.000 195.437,324.900 195.043,326.000 194.761 C 327.100 194.479,328.000 194.103,328.000 193.924 C 328.000 193.746,329.530 193.600,331.400 193.600 C 333.400 193.600,334.800 193.765,334.800 194.000 C 334.800 194.233,336.133 194.400,338.000 194.400 C 339.760 194.400,341.200 194.236,341.200 194.035 C 341.200 193.834,341.908 193.551,342.774 193.404 C 343.640 193.258,344.748 192.792,345.236 192.369 C 345.723 191.946,346.246 191.600,346.398 191.600 C 346.816 191.600,350.000 188.391,350.000 187.969 C 350.000 187.766,350.435 187.600,350.967 187.600 C 351.498 187.600,351.994 187.417,352.069 187.193 C 352.144 186.969,354.274 186.606,356.802 186.387 C 362.357 185.906,364.000 185.625,364.000 185.155 C 364.000 184.960,364.322 184.800,364.717 184.800 C 365.898 184.800,368.326 182.203,368.622 180.622 C 368.769 179.840,369.042 179.200,369.229 179.200 C 369.416 179.200,369.891 178.865,370.284 178.456 C 370.678 178.047,371.510 177.590,372.134 177.440 C 373.320 177.155,373.905 176.772,375.338 175.338 C 376.775 173.901,377.156 173.318,377.432 172.134 C 377.577 171.510,377.899 170.816,378.148 170.592 C 378.882 169.930,379.600 168.469,379.600 167.639 C 379.600 167.214,379.758 166.807,379.951 166.733 C 380.298 166.602,381.600 158.620,381.600 156.627 C 381.600 156.062,381.780 155.600,382.000 155.600 C 382.234 155.600,382.401 154.231,382.403 152.300 C 382.408 148.002,383.100 140.021,383.557 139.000 C 383.754 138.560,384.127 136.940,384.386 135.401 C 384.695 133.564,385.204 132.145,385.869 131.274 C 387.135 129.614,386.893 129.239,385.499 130.704 M203.237 142.270 C 203.269 142.452,203.260 142.690,203.217 142.800 C 202.897 143.620,202.982 144.280,203.464 144.731 C 203.945 145.180,204.014 145.041,203.931 143.801 C 203.877 143.000,203.686 142.253,203.506 142.142 C 203.327 142.031,203.206 142.089,203.237 142.270 M196.323 146.492 C 193.360 147.480,191.740 157.348,194.283 158.920 C 194.567 159.096,194.800 159.492,194.800 159.800 C 194.800 160.108,195.025 160.504,195.301 160.680 C 195.576 160.856,196.065 161.510,196.387 162.134 C 196.708 162.758,197.509 163.546,198.166 163.886 C 198.823 164.226,199.600 164.743,199.893 165.036 C 200.186 165.329,201.050 165.686,201.813 165.829 C 202.576 165.972,203.200 166.249,203.200 166.445 C 203.200 166.640,203.740 166.800,204.400 166.800 C 205.060 166.800,205.600 166.634,205.600 166.432 C 205.600 166.229,206.095 165.950,206.700 165.810 C 207.305 165.671,208.481 164.976,209.314 164.267 L 210.828 162.977 210.233 159.588 C 208.909 152.038,208.152 149.972,205.743 147.334 L 204.342 145.800 205.326 147.200 C 207.463 150.240,208.477 153.243,209.006 158.094 C 209.143 159.355,209.423 160.491,209.628 160.617 C 210.635 161.239,209.990 163.079,208.500 163.837 C 207.675 164.257,206.910 164.712,206.800 164.850 C 205.527 166.440,199.477 164.287,198.404 161.863 C 198.104 161.186,197.259 160.032,196.526 159.299 C 195.793 158.567,194.971 157.254,194.699 156.383 C 194.428 155.513,194.069 154.800,193.903 154.800 C 193.736 154.800,193.600 154.530,193.600 154.200 C 193.600 153.870,193.764 153.600,193.965 153.600 C 194.166 153.600,194.450 152.890,194.596 152.023 C 194.743 151.156,195.118 150.234,195.431 149.974 C 195.744 149.714,196.000 149.254,196.000 148.951 C 196.000 148.648,196.198 148.400,196.440 148.400 C 196.681 148.400,197.446 148.138,198.140 147.818 C 198.833 147.498,200.390 146.967,201.600 146.639 L 203.800 146.041 200.561 146.100 C 198.779 146.133,196.872 146.309,196.323 146.492 M70.934 292.000 C 70.934 293.650,71.005 294.325,71.091 293.500 C 71.178 292.675,71.178 291.325,71.091 290.500 C 71.005 289.675,70.934 290.350,70.934 292.000 " stroke="none" fill="#a46c04" fill-rule="evenodd"></path><path id="path4" d="M250.693 88.400 C 251.418 89.247,251.815 89.471,251.400 88.800 C 251.264 88.580,251.534 88.400,252.000 88.400 C 252.466 88.400,252.736 88.580,252.600 88.800 C 252.464 89.020,252.543 89.200,252.776 89.200 C 253.598 89.200,253.187 88.375,252.174 87.990 C 250.431 87.328,249.900 87.475,250.693 88.400 M344.400 88.527 C 344.400 88.843,344.670 89.326,345.000 89.600 C 345.415 89.944,345.600 89.959,345.600 89.649 C 345.600 89.402,345.409 89.200,345.176 89.200 C 344.943 89.200,344.856 89.032,344.983 88.828 C 345.109 88.623,345.030 88.342,344.807 88.204 C 344.583 88.066,344.400 88.211,344.400 88.527 M248.400 88.835 C 248.400 89.036,248.142 89.200,247.827 89.200 C 247.229 89.200,246.552 90.686,246.963 91.097 C 247.094 91.227,247.200 91.098,247.200 90.811 C 247.200 89.737,248.526 89.200,249.400 89.920 C 249.840 90.282,249.975 90.323,249.700 90.009 C 248.956 89.163,249.095 88.623,249.900 89.232 C 250.494 89.681,250.525 89.677,250.104 89.205 C 249.523 88.552,248.400 88.309,248.400 88.835 M246.281 92.200 C 246.429 93.080,246.554 94.102,246.560 94.471 C 246.566 94.839,246.707 95.058,246.873 94.955 C 247.195 94.756,246.893 92.713,246.346 91.400 C 246.143 90.913,246.118 91.226,246.281 92.200 M65.219 96.482 C 65.513 96.797,66.076 97.031,66.469 97.002 C 67.300 96.941,67.842 96.535,67.100 96.530 C 66.825 96.527,66.169 96.387,65.642 96.217 C 64.822 95.954,64.761 95.992,65.219 96.482 M142.457 96.356 C 142.128 96.565,142.071 96.796,142.312 96.946 C 142.531 97.081,142.932 96.923,143.204 96.596 C 143.743 95.945,143.320 95.809,142.457 96.356 M63.454 96.713 C 63.343 96.892,63.396 97.270,63.571 97.553 C 63.819 97.954,63.941 97.931,64.127 97.446 C 64.379 96.790,63.798 96.157,63.454 96.713 M144.413 96.624 C 144.406 96.856,144.664 97.396,144.987 97.824 C 145.310 98.251,145.580 98.409,145.587 98.176 C 145.594 97.944,145.336 97.404,145.013 96.976 C 144.690 96.549,144.420 96.391,144.413 96.624 M145.200 99.400 C 145.200 99.730,145.380 100.000,145.600 100.000 C 145.820 100.000,146.000 99.730,146.000 99.400 C 146.000 99.070,145.820 98.800,145.600 98.800 C 145.380 98.800,145.200 99.070,145.200 99.400 M48.900 104.294 C 49.945 104.376,51.655 104.376,52.700 104.294 C 53.745 104.212,52.890 104.144,50.800 104.144 C 48.710 104.144,47.855 104.212,48.900 104.294 M155.100 104.289 C 155.815 104.378,156.985 104.378,157.700 104.289 C 158.415 104.201,157.830 104.128,156.400 104.128 C 154.970 104.128,154.385 104.201,155.100 104.289 M371.300 104.676 C 371.685 104.776,372.315 104.776,372.700 104.676 C 373.085 104.575,372.770 104.493,372.000 104.493 C 371.230 104.493,370.915 104.575,371.300 104.676 M31.054 105.629 C 30.474 106.085,30.011 106.760,30.025 107.129 C 30.043 107.600,30.160 107.527,30.419 106.884 C 30.621 106.380,31.374 105.712,32.093 105.399 C 32.812 105.087,33.109 104.824,32.754 104.816 C 32.399 104.807,31.634 105.173,31.054 105.629 M376.300 105.396 C 377.592 105.958,378.193 107.003,376.950 106.526 C 376.384 106.308,376.394 106.425,377.029 107.438 C 378.079 109.111,378.091 109.117,377.800 107.799 C 377.600 106.891,377.639 106.746,377.962 107.200 C 378.270 107.634,378.389 107.656,378.394 107.282 C 378.403 106.511,376.544 104.798,375.718 104.816 C 375.283 104.825,375.512 105.054,376.300 105.396 M35.477 105.972 C 35.588 106.397,35.907 106.832,36.186 106.939 C 36.584 107.092,36.597 106.925,36.247 106.170 C 35.712 105.017,35.192 104.883,35.477 105.972 M32.646 106.225 C 32.514 106.569,32.237 106.746,32.030 106.619 C 31.824 106.491,31.542 106.570,31.404 106.793 C 31.266 107.017,31.433 107.200,31.776 107.200 C 32.119 107.200,32.400 107.402,32.400 107.649 C 32.400 107.953,32.600 107.932,33.019 107.584 C 33.513 107.174,33.533 107.004,33.119 106.741 C 32.733 106.497,32.779 106.411,33.300 106.406 C 33.685 106.403,34.000 106.220,34.000 106.000 C 34.000 105.358,32.909 105.540,32.646 106.225 M374.278 106.657 C 374.540 106.764,374.667 107.081,374.559 107.362 C 374.452 107.642,374.646 108.106,374.991 108.392 C 375.531 108.841,375.579 108.808,375.334 108.157 C 375.083 107.488,375.129 107.464,375.725 107.949 C 376.096 108.251,376.400 108.370,376.400 108.213 C 376.400 107.807,374.678 106.423,374.200 106.445 C 373.980 106.455,374.015 106.551,374.278 106.657 M31.444 108.166 C 31.647 108.696,31.594 108.843,31.273 108.645 C 30.963 108.454,30.894 108.579,31.064 109.023 C 31.300 109.638,31.348 109.637,31.701 109.005 C 31.957 108.548,31.930 108.171,31.618 107.861 C 31.265 107.511,31.223 107.585,31.444 108.166 M378.000 110.000 C 378.000 110.440,378.180 110.800,378.400 110.800 C 378.620 110.800,378.800 110.440,378.800 110.000 C 378.800 109.560,378.620 109.200,378.400 109.200 C 378.180 109.200,378.000 109.560,378.000 110.000 M213.600 113.863 C 212.700 114.799,212.379 115.381,212.702 115.493 C 212.979 115.589,213.086 115.861,212.941 116.096 C 212.781 116.355,212.866 116.406,213.158 116.226 C 213.439 116.052,213.500 115.736,213.303 115.464 C 212.855 114.846,214.994 112.754,215.528 113.288 C 215.770 113.530,216.022 113.488,216.217 113.173 C 216.415 112.853,216.359 112.778,216.062 112.962 C 215.808 113.119,215.600 113.057,215.600 112.824 C 215.600 112.078,215.035 112.372,213.600 113.863 M185.000 113.600 C 184.305 113.899,184.293 113.947,184.909 113.972 C 185.298 113.987,185.822 114.450,186.073 115.000 C 186.583 116.121,187.200 116.327,187.200 115.376 C 187.200 115.002,187.013 114.868,186.732 115.042 C 186.417 115.236,186.348 115.113,186.519 114.666 C 186.689 114.224,186.569 114.000,186.164 114.000 C 185.828 114.000,185.664 113.820,185.800 113.600 C 186.084 113.140,186.070 113.140,185.000 113.600 M385.000 113.600 C 384.305 113.899,384.293 113.947,384.909 113.972 C 385.298 113.987,385.822 114.450,386.073 115.000 C 386.583 116.121,387.200 116.327,387.200 115.376 C 387.200 115.002,387.013 114.868,386.732 115.042 C 386.417 115.236,386.348 115.113,386.519 114.666 C 386.689 114.224,386.569 114.000,386.164 114.000 C 385.828 114.000,385.664 113.820,385.800 113.600 C 386.084 113.140,386.070 113.140,385.000 113.600 M23.100 113.876 C 22.715 113.976,22.400 114.211,22.400 114.397 C 22.400 114.582,22.300 114.996,22.177 115.316 C 22.050 115.646,22.247 116.009,22.634 116.158 C 23.184 116.369,23.224 116.311,22.843 115.852 C 22.158 115.027,23.427 113.758,24.252 114.443 C 24.709 114.822,24.770 114.786,24.566 114.257 C 24.428 113.895,24.199 113.621,24.057 113.646 C 23.916 113.672,23.485 113.775,23.100 113.876 M184.800 115.600 C 184.800 115.820,184.800 116.090,184.800 116.200 C 184.800 116.697,185.359 116.357,185.440 115.811 C 185.489 115.475,185.365 115.200,185.165 115.200 C 184.964 115.200,184.800 115.380,184.800 115.600 M384.800 115.600 C 384.800 115.820,384.800 116.090,384.800 116.200 C 384.800 116.697,385.359 116.357,385.440 115.811 C 385.489 115.475,385.365 115.200,385.165 115.200 C 384.964 115.200,384.800 115.380,384.800 115.600 M186.800 117.987 C 186.800 118.567,186.619 118.705,186.113 118.511 C 185.506 118.278,185.494 118.320,186.011 118.874 C 186.333 119.218,186.822 119.413,187.098 119.307 C 187.691 119.079,187.782 117.200,187.200 117.200 C 186.980 117.200,186.800 117.554,186.800 117.987 M386.800 117.987 C 386.800 118.567,386.619 118.705,386.113 118.511 C 385.506 118.278,385.494 118.320,386.011 118.874 C 386.333 119.218,386.822 119.413,387.098 119.307 C 387.691 119.079,387.782 117.200,387.200 117.200 C 386.980 117.200,386.800 117.554,386.800 117.987 M15.600 121.210 C 15.152 121.519,15.290 121.557,16.143 121.358 C 16.914 121.178,17.412 121.272,17.673 121.646 C 17.994 122.104,18.033 122.096,17.899 121.600 C 17.701 120.865,16.415 120.647,15.600 121.210 M190.667 121.067 C 190.520 121.213,190.403 121.528,190.406 121.767 C 190.410 122.060,190.507 122.053,190.706 121.746 C 190.868 121.497,191.360 121.203,191.800 121.093 C 192.574 120.899,192.573 120.891,191.767 120.846 C 191.308 120.821,190.813 120.920,190.667 121.067 M192.933 121.800 C 192.933 122.130,193.022 122.312,193.130 122.203 C 193.238 122.095,193.597 122.230,193.927 122.503 C 194.458 122.942,194.463 122.894,193.968 122.100 C 193.319 121.057,192.933 120.946,192.933 121.800 M386.940 122.587 C 387.064 122.910,387.010 123.270,386.820 123.388 C 386.386 123.656,386.764 125.200,387.263 125.200 C 387.466 125.200,387.590 124.480,387.538 123.600 C 387.486 122.720,387.280 122.000,387.079 122.000 C 386.878 122.000,386.816 122.264,386.940 122.587 M12.667 126.667 C 12.275 127.058,12.341 129.200,12.745 129.200 C 12.934 129.200,12.999 128.731,12.890 128.157 C 12.767 127.517,12.905 126.979,13.245 126.764 C 13.550 126.570,13.605 126.409,13.367 126.406 C 13.128 126.403,12.813 126.520,12.667 126.667 M9.200 129.602 C 8.761 129.888,8.953 129.953,9.916 129.847 C 10.640 129.767,11.345 129.588,11.483 129.451 C 11.891 129.042,9.853 129.178,9.200 129.602 M196.858 129.391 C 196.963 129.496,197.398 129.649,197.824 129.731 C 199.223 129.999,200.000 130.476,199.736 130.904 C 199.588 131.143,199.667 131.205,199.921 131.049 C 200.572 130.647,200.079 129.715,199.072 129.445 C 198.015 129.161,196.593 129.127,196.858 129.391 M384.000 130.024 C 384.000 130.257,383.834 130.344,383.631 130.219 C 381.973 129.194,381.180 133.930,380.573 148.500 C 380.419 152.185,380.137 155.200,379.947 155.200 C 379.756 155.200,379.600 155.775,379.600 156.477 C 379.600 157.434,379.223 158.109,378.094 159.177 C 377.266 159.960,376.249 161.365,375.834 162.300 C 375.418 163.235,374.921 164.000,374.729 164.000 C 374.537 164.000,374.209 164.450,374.000 165.000 C 373.791 165.550,373.479 166.000,373.308 166.000 C 373.136 166.000,372.756 166.542,372.463 167.203 C 371.829 168.635,368.987 171.558,367.414 172.395 C 366.800 172.723,365.578 173.668,364.699 174.495 C 363.820 175.323,362.940 176.000,362.742 176.000 C 362.544 176.000,361.399 176.969,360.196 178.153 C 357.778 180.531,355.308 181.600,352.225 181.600 C 351.221 181.600,350.400 181.740,350.400 181.911 C 350.400 182.083,348.840 182.435,346.933 182.695 C 345.027 182.955,343.362 183.329,343.233 183.526 C 343.105 183.723,342.304 184.111,341.452 184.389 C 340.601 184.666,339.197 185.580,338.332 186.419 C 337.467 187.259,336.184 188.070,335.480 188.223 C 334.776 188.376,334.108 188.643,333.996 188.818 C 333.884 188.993,331.904 189.366,329.596 189.647 C 327.288 189.929,325.271 190.349,325.114 190.580 C 324.666 191.240,267.520 191.161,267.300 190.500 C 267.199 190.197,266.398 189.997,265.267 189.992 C 262.173 189.979,258.444 189.301,257.774 188.631 C 257.427 188.284,256.983 188.000,256.788 188.000 C 256.592 188.000,256.006 187.540,255.484 186.978 C 254.496 185.912,253.150 186.086,251.700 187.467 C 250.657 188.459,251.271 198.725,252.425 199.600 C 252.570 199.710,253.009 200.430,253.400 201.200 C 253.791 201.970,254.312 202.729,254.556 202.887 C 255.177 203.288,255.169 215.123,254.547 215.515 C 254.067 215.817,252.800 219.225,252.800 220.214 C 252.800 220.536,252.640 220.800,252.444 220.800 C 252.248 220.800,251.849 221.610,251.557 222.600 C 251.265 223.590,250.905 224.400,250.758 224.400 C 250.611 224.400,250.270 225.570,250.000 227.000 C 249.730 228.430,249.394 229.600,249.252 229.600 C 249.111 229.600,248.759 230.135,248.470 230.788 C 247.931 232.005,245.898 234.400,245.404 234.400 C 245.045 234.400,242.800 236.519,242.800 236.856 C 242.800 237.303,240.633 239.437,239.900 239.712 C 239.515 239.857,239.200 240.132,239.200 240.324 C 239.200 240.516,238.120 241.000,236.800 241.400 C 235.480 241.800,234.400 242.245,234.400 242.389 C 234.400 242.533,233.791 242.890,233.047 243.181 C 232.196 243.515,231.461 244.202,231.065 245.032 C 230.456 246.309,228.692 247.191,226.733 247.198 C 226.367 247.199,226.007 247.372,225.933 247.581 C 225.860 247.791,224.135 248.183,222.100 248.453 C 220.065 248.723,218.400 249.068,218.400 249.220 C 218.400 249.373,217.508 249.615,216.417 249.760 C 215.326 249.905,214.193 250.264,213.898 250.559 C 213.604 250.853,212.969 251.219,212.488 251.372 C 212.007 251.525,210.824 252.439,209.859 253.404 C 208.894 254.369,207.586 255.286,206.952 255.441 C 206.319 255.596,205.672 255.920,205.515 256.162 C 205.212 256.626,199.996 257.100,194.500 257.162 C 192.592 257.184,191.200 257.369,191.200 257.600 C 191.200 257.862,182.867 258.000,167.000 258.000 C 151.133 258.000,142.800 257.862,142.800 257.600 C 142.800 257.368,141.496 257.197,139.700 257.193 C 135.278 257.184,127.509 256.494,127.233 256.086 C 127.105 255.896,126.114 255.497,125.030 255.199 C 123.718 254.838,122.565 254.146,121.577 253.128 C 120.761 252.288,119.905 251.600,119.675 251.600 C 119.445 251.600,118.991 251.334,118.665 251.008 C 118.340 250.683,117.202 250.191,116.137 249.915 C 115.072 249.639,114.110 249.298,114.000 249.157 C 113.890 249.016,111.595 248.671,108.900 248.391 C 106.205 248.111,104.000 247.740,104.000 247.568 C 104.000 247.395,103.595 247.129,103.100 246.977 C 102.605 246.825,101.324 245.823,100.254 244.750 C 99.183 243.678,98.058 242.800,97.754 242.800 C 97.449 242.800,97.200 242.638,97.200 242.440 C 97.200 242.242,96.300 241.757,95.200 241.361 C 94.100 240.966,93.200 240.526,93.200 240.385 C 93.200 240.244,92.480 239.890,91.600 239.600 C 90.720 239.310,90.000 238.938,90.000 238.775 C 90.000 238.612,89.460 238.290,88.800 238.060 C 88.140 237.830,87.600 237.362,87.600 237.021 C 87.600 236.679,87.427 236.400,87.216 236.400 C 87.005 236.400,86.611 235.661,86.340 234.758 C 86.070 233.855,85.613 233.026,85.324 232.916 C 85.036 232.805,84.800 232.474,84.800 232.180 C 84.800 231.886,84.485 231.410,84.100 231.123 C 83.715 230.835,83.130 230.066,82.800 229.414 C 82.470 228.761,81.525 227.567,80.699 226.760 C 79.874 225.953,79.086 224.731,78.949 224.046 C 78.812 223.361,78.571 222.800,78.414 222.800 C 77.656 222.800,77.200 220.387,77.200 216.381 C 77.200 213.727,77.042 212.000,76.800 212.000 C 76.580 212.000,76.397 211.415,76.394 210.700 C 76.385 208.664,75.288 204.516,74.508 203.565 C 73.266 202.051,72.264 201.200,71.725 201.200 C 71.436 201.200,71.200 201.038,71.200 200.841 C 71.200 200.428,66.842 199.600,64.667 199.600 C 63.860 199.600,63.200 199.456,63.200 199.280 C 63.200 199.103,61.850 198.719,60.200 198.426 C 58.550 198.133,57.200 197.757,57.200 197.591 C 57.200 197.425,56.525 197.164,55.700 197.012 C 54.725 196.831,53.710 196.220,52.800 195.267 C 52.030 194.460,50.860 193.530,50.200 193.200 C 49.540 192.870,48.786 192.398,48.524 192.152 C 48.059 191.716,42.953 190.800,40.984 190.800 C 40.443 190.800,40.000 190.620,40.000 190.400 C 40.000 190.180,39.562 190.000,39.026 190.000 C 37.058 190.000,32.400 186.656,32.400 185.242 C 32.400 185.106,31.815 184.739,31.100 184.427 C 30.385 184.114,29.565 183.530,29.277 183.129 C 28.990 182.728,28.540 182.392,28.277 182.382 C 28.015 182.371,27.440 181.896,27.000 181.324 C 26.560 180.753,25.840 179.895,25.400 179.418 C 24.960 178.941,24.346 178.070,24.036 177.482 C 23.726 176.894,23.141 176.308,22.736 176.180 C 20.814 175.570,18.400 172.230,18.400 170.181 C 18.400 169.642,18.248 169.200,18.062 169.200 C 17.877 169.200,17.515 167.715,17.258 165.900 C 17.002 164.085,16.614 162.540,16.396 162.467 C 16.178 162.393,16.000 161.909,16.000 161.390 C 16.000 160.872,15.820 160.336,15.600 160.200 C 15.380 160.064,15.200 159.573,15.200 159.110 C 15.200 158.646,15.081 158.386,14.935 158.532 C 14.789 158.678,14.342 158.258,13.941 157.599 C 13.540 156.939,12.939 156.378,12.606 156.350 C 12.273 156.323,11.370 156.278,10.600 156.250 C 9.830 156.222,9.197 156.020,9.194 155.800 C 9.191 155.580,9.013 155.670,8.800 156.000 C 8.455 156.533,8.411 156.533,8.400 156.000 C 8.389 155.485,8.336 155.482,8.024 155.974 C 7.725 156.448,7.552 156.458,7.036 156.030 C 6.692 155.744,6.129 155.619,5.784 155.751 C 5.440 155.883,5.262 155.824,5.388 155.620 C 5.514 155.416,5.357 155.103,5.040 154.925 C 4.723 154.746,4.388 153.970,4.296 153.200 C 4.204 152.430,4.137 156.840,4.149 163.000 C 4.160 169.160,4.228 172.265,4.298 169.900 C 4.380 167.160,4.584 165.600,4.860 165.600 C 5.098 165.600,5.204 165.259,5.095 164.843 C 4.884 164.034,5.832 163.900,6.332 164.668 C 6.618 165.106,6.912 165.144,10.503 165.203 C 13.030 165.245,13.559 165.843,14.228 169.410 C 14.372 170.174,14.625 170.800,14.792 170.800 C 14.958 170.800,15.186 171.481,15.298 172.313 C 15.606 174.610,16.999 177.326,18.429 178.420 C 20.374 179.906,22.400 181.819,22.400 182.169 C 22.400 182.696,26.168 186.387,26.713 186.394 C 26.994 186.397,27.322 186.652,27.440 186.961 C 27.559 187.269,28.002 187.612,28.426 187.723 C 28.849 187.833,29.314 188.231,29.458 188.606 C 29.892 189.738,31.318 191.016,32.800 191.602 C 33.570 191.906,34.300 192.299,34.422 192.475 C 34.544 192.651,35.714 193.007,37.022 193.265 C 38.330 193.523,39.490 193.854,39.600 194.000 C 39.710 194.146,40.925 194.500,42.300 194.787 C 43.675 195.074,44.800 195.465,44.800 195.655 C 44.800 195.845,45.135 196.000,45.544 196.000 C 45.953 196.000,46.898 196.628,47.644 197.396 C 48.390 198.163,49.225 198.793,49.500 198.796 C 49.775 198.798,50.000 198.962,50.000 199.160 C 50.000 199.358,50.900 199.736,52.000 200.000 C 53.100 200.264,54.000 200.607,54.000 200.762 C 54.000 200.917,55.350 201.271,57.000 201.548 C 58.650 201.825,60.000 202.186,60.000 202.349 C 60.000 202.512,61.637 202.959,63.638 203.342 C 65.639 203.726,67.542 204.256,67.867 204.520 C 68.192 204.784,68.765 205.270,69.141 205.600 C 69.517 205.930,70.291 206.443,70.861 206.740 C 71.516 207.082,72.095 207.893,72.433 208.940 C 72.726 209.853,73.148 210.725,73.370 210.877 C 73.591 211.029,73.869 213.473,73.986 216.307 C 74.151 220.280,74.346 221.606,74.837 222.096 C 75.188 222.446,75.720 223.332,76.020 224.066 C 76.321 224.800,76.792 225.631,77.067 225.913 C 77.343 226.195,77.686 227.050,77.829 227.813 C 77.972 228.576,78.233 229.200,78.409 229.200 C 78.586 229.200,78.852 229.922,79.001 230.805 C 79.165 231.775,79.574 232.572,80.036 232.819 C 80.456 233.044,80.800 233.447,80.800 233.714 C 80.801 233.981,81.251 234.723,81.800 235.362 C 82.350 236.001,82.800 236.772,82.800 237.075 C 82.800 237.377,83.070 237.729,83.400 237.855 C 83.730 237.982,84.002 238.291,84.004 238.543 C 84.010 239.200,86.438 241.445,87.500 241.774 C 87.995 241.928,88.400 242.207,88.400 242.395 C 88.400 242.583,88.952 242.858,89.627 243.006 C 90.302 243.154,90.951 243.527,91.068 243.834 C 91.186 244.141,91.984 244.603,92.841 244.860 C 93.699 245.116,94.400 245.449,94.400 245.599 C 94.400 245.749,94.850 246.077,95.400 246.327 C 95.950 246.578,96.400 247.028,96.400 247.327 C 96.400 247.627,96.850 248.077,97.400 248.327 C 97.950 248.578,98.400 248.938,98.400 249.127 C 98.400 249.317,99.165 249.718,100.100 250.019 C 101.035 250.320,101.903 250.714,102.030 250.893 C 102.156 251.073,104.361 251.426,106.930 251.678 C 109.498 251.929,111.600 252.285,111.600 252.468 C 111.600 252.650,111.952 252.800,112.381 252.800 C 114.074 252.800,117.200 254.923,117.200 256.072 C 117.200 256.263,117.650 256.591,118.200 256.800 C 118.750 257.009,119.200 257.350,119.200 257.558 C 119.200 258.020,124.217 259.200,126.179 259.200 C 126.961 259.200,127.600 259.356,127.600 259.547 C 127.600 259.738,130.525 260.123,134.100 260.403 C 137.873 260.698,140.720 261.098,140.885 261.356 C 141.292 261.988,192.710 261.986,193.115 261.354 C 193.278 261.099,195.963 260.697,199.400 260.413 C 202.700 260.141,205.460 259.757,205.533 259.559 C 205.607 259.362,206.147 259.198,206.733 259.195 C 208.257 259.188,211.821 258.186,212.602 257.544 C 212.966 257.245,214.087 256.234,215.092 255.298 C 216.098 254.362,217.658 253.381,218.560 253.118 C 219.462 252.854,220.293 252.508,220.406 252.348 C 220.519 252.188,222.589 251.837,225.006 251.568 C 227.423 251.300,229.490 250.963,229.600 250.821 C 229.710 250.678,230.565 250.338,231.500 250.064 C 232.435 249.791,233.200 249.417,233.200 249.232 C 233.200 249.048,233.717 248.683,234.348 248.421 C 234.980 248.160,235.696 247.508,235.940 246.973 C 236.183 246.438,236.657 246.000,236.991 246.000 C 237.326 246.000,237.600 245.834,237.600 245.631 C 237.600 245.428,238.265 245.043,239.077 244.774 C 239.890 244.506,240.914 243.952,241.353 243.543 C 241.792 243.135,242.387 242.800,242.675 242.800 C 242.964 242.800,243.200 242.625,243.200 242.410 C 243.200 242.196,243.785 241.719,244.500 241.351 C 245.215 240.982,246.006 240.393,246.259 240.040 C 246.511 239.688,247.411 238.659,248.259 237.753 C 250.452 235.409,251.184 234.472,251.687 233.369 C 251.930 232.836,252.260 232.400,252.421 232.400 C 252.582 232.400,253.037 231.320,253.432 230.000 C 253.828 228.680,254.268 227.600,254.411 227.600 C 254.554 227.600,254.899 226.070,255.177 224.200 C 255.455 222.330,255.808 220.800,255.961 220.800 C 256.115 220.800,256.472 219.676,256.756 218.301 C 257.040 216.927,257.391 215.712,257.536 215.601 C 259.637 213.996,259.584 198.041,257.473 196.724 C 256.951 196.399,258.942 194.400,259.787 194.400 C 260.088 194.400,260.409 194.175,260.501 193.900 C 260.708 193.280,267.192 193.339,267.578 193.964 C 268.652 195.702,322.233 195.751,323.600 194.015 C 323.886 193.652,326.934 192.800,327.946 192.800 C 328.416 192.800,328.800 192.620,328.800 192.400 C 328.800 192.158,330.512 192.000,333.136 192.000 C 335.640 192.000,338.237 191.770,339.280 191.456 C 341.077 190.915,341.416 190.685,344.088 188.192 C 345.466 186.906,349.543 185.600,352.179 185.600 C 352.741 185.600,353.200 185.448,353.200 185.262 C 353.200 185.077,354.675 184.716,356.477 184.461 C 358.279 184.206,359.854 183.846,359.977 183.660 C 360.100 183.475,360.661 183.211,361.225 183.073 C 361.788 182.935,362.778 182.368,363.425 181.812 C 364.071 181.256,364.735 180.801,364.900 180.800 C 365.065 180.800,365.200 180.550,365.200 180.245 C 365.200 179.940,365.767 179.265,366.460 178.745 C 367.152 178.225,368.097 177.437,368.560 176.994 C 369.022 176.551,369.925 175.921,370.566 175.594 C 372.210 174.756,374.959 171.915,375.761 170.227 C 376.133 169.442,376.565 168.800,376.721 168.800 C 376.877 168.800,377.261 168.215,377.573 167.500 C 377.886 166.785,378.470 165.965,378.871 165.677 C 379.328 165.350,379.600 164.653,379.600 163.811 C 379.600 163.071,379.777 162.407,379.993 162.333 C 380.512 162.157,381.600 152.715,381.600 148.382 C 381.600 146.500,381.753 144.789,381.940 144.580 C 382.127 144.371,382.505 142.130,382.781 139.600 C 383.056 137.070,383.418 134.820,383.586 134.600 C 383.753 134.380,384.017 133.660,384.173 133.000 C 384.329 132.340,384.928 131.305,385.503 130.700 L 386.550 129.600 385.275 129.600 C 384.574 129.600,384.000 129.791,384.000 130.024 M6.400 130.692 C 5.645 130.979,5.205 131.626,5.238 132.400 C 5.260 132.933,5.289 132.933,5.496 132.400 C 5.970 131.181,6.940 130.808,7.757 131.531 C 8.484 132.174,8.492 132.165,7.960 131.300 C 7.375 130.348,7.340 130.334,6.400 130.692 M202.997 131.900 C 203.292 132.505,203.639 134.440,203.768 136.200 C 203.897 137.960,203.859 139.068,203.683 138.661 C 203.393 137.993,203.312 137.983,202.836 138.557 C 202.546 138.906,202.122 139.075,201.893 138.934 C 201.238 138.529,199.573 138.432,199.808 138.812 C 199.924 139.001,199.115 139.087,198.010 139.005 C 195.948 138.852,194.800 139.425,194.800 140.609 C 194.800 140.912,194.561 141.304,194.269 141.480 C 193.978 141.656,193.493 142.700,193.192 143.800 C 192.892 144.900,192.416 146.032,192.135 146.316 C 191.854 146.600,191.403 147.905,191.132 149.216 C 190.861 150.527,190.496 151.600,190.320 151.600 C 190.144 151.600,190.000 152.860,190.000 154.400 C 190.000 156.000,190.171 157.200,190.400 157.200 C 190.620 157.200,190.800 157.734,190.800 158.386 C 190.800 159.980,191.956 163.322,192.645 163.720 C 192.950 163.896,193.200 164.305,193.200 164.630 C 193.200 164.954,193.650 165.391,194.200 165.600 C 194.750 165.809,195.200 166.136,195.200 166.326 C 195.200 166.516,195.965 166.918,196.900 167.219 C 197.835 167.520,198.690 167.885,198.800 168.029 C 199.243 168.611,204.552 169.076,206.144 168.672 C 210.111 167.665,212.223 164.532,211.833 160.233 C 211.501 156.585,210.043 150.000,209.567 150.000 C 209.365 150.000,209.200 149.743,209.200 149.429 C 209.200 148.770,206.467 146.400,205.706 146.400 C 205.405 146.400,205.702 147.098,206.431 148.100 C 208.478 150.917,208.975 152.419,210.233 159.588 L 210.828 162.977 209.314 164.267 C 208.481 164.976,207.305 165.671,206.700 165.810 C 206.095 165.950,205.600 166.229,205.600 166.432 C 205.600 166.634,205.060 166.800,204.400 166.800 C 203.740 166.800,203.200 166.640,203.200 166.445 C 203.200 166.249,202.576 165.972,201.813 165.829 C 201.050 165.686,200.186 165.329,199.893 165.036 C 199.600 164.743,198.823 164.226,198.166 163.886 C 197.509 163.546,196.708 162.758,196.387 162.134 C 196.065 161.510,195.576 160.856,195.301 160.680 C 195.025 160.504,194.800 160.108,194.800 159.800 C 194.800 159.492,194.567 159.096,194.283 158.920 C 192.494 157.814,192.481 153.198,194.255 149.221 C 195.574 146.265,195.835 146.151,201.500 146.051 L 204.400 146.000 204.400 138.976 C 204.400 134.396,204.261 132.039,204.000 132.200 C 203.640 132.422,203.427 131.897,203.553 131.100 C 203.579 130.935,203.344 130.800,203.031 130.800 C 202.546 130.800,202.541 130.964,202.997 131.900 M203.935 143.402 C 203.965 144.891,203.878 145.117,203.435 144.704 C 202.993 144.291,202.878 143.324,203.219 142.900 C 203.264 142.845,203.345 142.620,203.400 142.400 C 203.455 142.180,203.523 141.910,203.550 141.800 C 203.723 141.107,203.904 141.859,203.935 143.402 M4.914 206.200 C 4.917 207.300,4.995 207.703,5.087 207.095 C 5.179 206.486,5.177 205.586,5.082 205.095 C 4.987 204.603,4.911 205.100,4.914 206.200 M13.309 214.800 C 13.309 215.790,13.387 216.195,13.482 215.700 C 13.578 215.205,13.578 214.395,13.482 213.900 C 13.387 213.405,13.309 213.810,13.309 214.800 M70.901 303.000 C 70.905 303.880,70.987 304.193,71.083 303.695 C 71.179 303.198,71.175 302.478,71.075 302.095 C 70.975 301.713,70.896 302.120,70.901 303.000 M79.301 322.200 C 79.305 323.080,79.387 323.393,79.483 322.895 C 79.579 322.398,79.575 321.678,79.475 321.295 C 79.375 320.913,79.296 321.320,79.301 322.200 " stroke="none" fill="#b87c0c" fill-rule="evenodd"></path></g></svg>