<?xml version="1.0" encoding="utf-8"?>
<!-- Generator: Adobe Illustrator 22.0.0, SVG Export Plug-In . SVG Version: 6.00 Build 0)  -->
<svg version="1.1" id="Layer_1" xmlns="http://www.w3.org/2000/svg" xmlns:xlink="http://www.w3.org/1999/xlink" x="0px" y="0px"
	 viewBox="0 0 21.3 30.2" style="enable-background:new 0 0 21.3 30.2;" xml:space="preserve">
<style type="text/css">
	.st0{fill-rule:evenodd;clip-rule:evenodd;fill:#FFFFFF;}
</style>
<path class="st0" d="M0.1,25.7c-0.4-4.7,0.9-9,4.1-12.5c1.2-1.4,2.7-2.7,3.7-4.4C8,8.5,8.3,8.5,8.5,8.5c1.4,0,2.8,0,4.3,0
	c0.3,0,0.6,0.1,0.8,0.4c0.8,1.4,1.8,2.4,2.9,3.5c3.7,3.7,5.1,8.1,4.7,13.2C20.9,31.7,0.6,31.7,0.1,25.7L0.1,25.7z M10.6,6.3
	L10.6,6.3c0.9,0,1.7,0,2.6,0C13.6,6.3,14,6.5,14,7c0,0.4-0.3,0.6-0.8,0.6c-1.7,0-3.5,0-5.3,0c-0.4,0-0.8-0.2-0.7-0.6
	c0-0.5,0.3-0.7,0.8-0.7C8.8,6.3,9.7,6.3,10.6,6.3L10.6,6.3z M14.5,1.4L14.5,1.4c0.5,0.3,0.5,0.8,0.3,1.2c-0.4,0.9-0.8,1.7-1.2,2.6
	c-0.1,0.3-0.3,0.4-0.6,0.4c-1.5,0-3.1,0-4.7,0C8,5.6,7.8,5.5,7.7,5.2C7.1,4,6.6,2.7,6,1.5c-0.3-0.6-0.1-1,0.5-1.2
	c1-0.5,1.8-0.3,2.6,0.3c0.6,0.5,1.1,1,2,1.1C13.8,2,13.8,1,14.5,1.4L14.5,1.4z M11.7,21.9L11.7,21.9c0-0.3-0.1-0.6-0.3-0.9v0l0,0v0
	h0v0h0v0c-0.2-0.2-0.6-0.3-0.9-0.5c-1-0.4-1.7-0.8-2.2-1.2c-0.5-0.5-0.7-1.1-0.7-1.8s0.2-1.4,0.7-1.8c0.5-0.5,1.1-0.8,1.9-0.9v-1.4
	h1.1v1.5c0.8,0.1,1.4,0.4,1.8,1c0.5,0.5,0.7,1.3,0.6,2.1v0h-1.9c0-0.5-0.1-0.9-0.3-1.2c-0.2-0.3-0.5-0.4-0.9-0.4c-0.1,0-0.2,0-0.3,0
	h0h0v0h0h0l0,0v0h0H9.9v0h0l0,0v0h0v0h0h0v0h0v0h0v0h0v0v0h0l0,0h0v0v0h0v0.1v0h0l0,0v0h0v0v0v0.1h0l0,0v0v0c0,0.1,0,0.2,0,0.3
	c0,0.3,0.1,0.6,0.3,0.9c0.2,0.2,0.6,0.4,1.1,0.6c1,0.4,1.7,0.8,2.2,1.3c0.5,0.4,0.7,1,0.7,1.8c0,0.8-0.3,1.4-0.7,1.8
	c-0.5,0.5-1.1,0.8-2,0.9v1.3h-1v-1.3c-0.8-0.1-1.6-0.4-2.1-0.9C7.3,23.2,7,22.4,7,21.4l0,0H9c0,0.6,0.2,1,0.4,1.3
	c0.3,0.3,0.6,0.3,1.1,0.3c0.4,0,0.6,0,0.8-0.2h0v0h0v0l0,0v0C11.6,22.5,11.7,22.2,11.7,21.9L11.7,21.9z"/>
</svg>
